<?xml version="1.0" standalone="no"?>
<!DOCTYPE svg PUBLIC "-//W3C//DTD SVG 20010904//EN"
 "http://www.w3.org/TR/2001/REC-SVG-20010904/DTD/svg10.dtd">
<svg version="1.0" xmlns="http://www.w3.org/2000/svg"
 width="1123.000000pt" height="256.000000pt" viewBox="0 0 1123.000000 256.000000"
 preserveAspectRatio="xMidYMid meet">

<g transform="translate(0.000000,256.000000) scale(0.100000,-0.100000)"
fill="#000000" stroke="none">
<path d="M12 2268 l3 -293 793 -1 c435 -1 795 -3 800 -4 4 -1 11 -2 15 -1 4 1
24 4 45 7 20 3 55 10 77 15 61 13 165 11 245 -6 40 -8 76 -13 81 -9 5 3 9 -1
9 -8 0 -8 3 -9 8 -3 5 7 1440 11 4567 10 l4560 0 3 293 2 292 -5605 0 -5605 0
2 -292z"/>
<path d="M1555 1950 c-3 -5 -2 -10 4 -10 5 0 13 5 16 10 3 6 2 10 -4 10 -5 0
-13 -4 -16 -10z"/>
<path d="M1715 1759 c-52 -48 -85 -107 -84 -154 0 -26 6 -33 48 -53 36 -16 54
-32 66 -59 22 -46 23 -126 2 -175 l-15 -37 41 -6 c116 -20 187 -99 187 -211 0
-70 -27 -123 -84 -161 -39 -27 -48 -28 -186 -33 l-145 -5 90 -10 c50 -6 97
-10 105 -9 14 0 15 -8 6 -59 -7 -47 -6 -61 5 -67 7 -5 16 -6 19 -2 3 4 16 8
30 9 47 3 -51 -36 -107 -43 -65 -8 -170 10 -240 42 -29 12 -53 20 -53 16 0 -4
23 -22 51 -41 222 -145 472 -160 708 -44 57 29 98 59 162 123 112 111 118 124
109 225 -12 129 -55 228 -130 300 l-30 29 -15 -21 c-19 -27 -40 -48 -64 -65
-18 -13 -15 -21 50 -152 38 -77 69 -141 69 -142 0 -2 -31 -4 -70 -4 l-70 0
-55 109 -55 110 -41 3 -42 3 -99 153 -98 154 40 16 40 17 0 63 0 62 73 1 72 2
-53 10 c-51 10 -104 3 -154 -18 -11 -4 -18 -3 -18 5 0 6 4 9 9 5 5 -3 12 -1
15 4 4 5 2 12 -4 16 -5 3 -10 17 -10 31 0 13 -5 24 -10 24 -15 0 -30 44 -18
51 6 4 8 13 6 20 -3 8 -21 -2 -53 -32z"/>
<path d="M1251 1639 c-17 -30 -25 -63 -29 -124 -8 -133 42 -263 120 -309 14
-9 29 -16 33 -16 8 0 5 217 -5 271 -5 24 -13 45 -19 47 -6 2 -11 14 -11 27 0
13 -4 26 -10 30 -5 3 -17 30 -26 60 -10 30 -21 55 -24 55 -3 0 -17 -18 -29
-41z"/>
<path d="M1393 1583 c9 -2 25 -2 35 0 9 3 1 5 -18 5 -19 0 -27 -2 -17 -5z"/>
<path d="M1508 1443 c7 -3 16 -2 19 1 4 3 -2 6 -13 5 -11 0 -14 -3 -6 -6z"/>
<path d="M1506 1383 c-3 -16 -8 -45 -12 -65 l-6 -38 55 0 c46 0 59 4 72 22 14
21 14 24 -7 40 -13 10 -19 18 -14 18 5 0 -3 11 -18 25 -36 34 -63 33 -70 -2z"/>
<path d="M1500 1076 c0 -67 3 -85 16 -90 9 -3 72 -6 141 -6 124 0 125 0 154
29 41 41 40 90 -2 125 -30 25 -35 26 -170 26 l-139 0 0 -84z"/>
</g>
</svg>
