<?xml version="1.0" standalone="no"?>
<!DOCTYPE svg PUBLIC "-//W3C//DTD SVG 20010904//EN"
 "http://www.w3.org/TR/2001/REC-SVG-20010904/DTD/svg10.dtd">
<svg version="1.0" xmlns="http://www.w3.org/2000/svg"
 width="499.000000pt" height="500.000000pt" viewBox="0 0 499.000000 500.000000"
 preserveAspectRatio="xMidYMid meet">

<g transform="translate(0.000000,500.000000) scale(0.100000,-0.100000)"
fill="#000000" stroke="none">
<path d="M2978 4473 c12 -2 30 -2 40 0 9 3 -1 5 -23 4 -22 0 -30 -2 -17 -4z"/>
<path d="M3098 4463 c6 -2 18 -2 25 0 6 3 1 5 -13 5 -14 0 -19 -2 -12 -5z"/>
<path d="M2618 4453 c7 -3 16 -2 19 1 4 3 -2 6 -13 5 -11 0 -14 -3 -6 -6z"/>
<path d="M2455 4410 c-13 -5 -14 -9 -5 -9 8 0 24 4 35 9 13 5 14 9 5 9 -8 0
-24 -4 -35 -9z"/>
<path d="M2380 4380 c-9 -6 -10 -10 -3 -10 6 0 15 5 18 10 8 12 4 12 -15 0z"/>
<path d="M2205 4283 c-93 -59 -246 -203 -303 -285 -90 -131 -145 -289 -146
-422 l-1 -89 83 -18 c252 -55 391 -249 392 -546 0 -119 -19 -209 -70 -325 -23
-51 -44 -100 -46 -108 -4 -13 11 -16 95 -17 172 -3 291 -46 424 -153 142 -114
236 -266 264 -425 27 -155 2 -355 -58 -462 -105 -188 -317 -325 -539 -347 -30
-3 -244 -6 -475 -7 -256 -1 -392 -5 -349 -9 40 -4 87 -13 106 -19 46 -15 328
-41 453 -41 55 0 107 -5 115 -10 10 -6 20 -4 32 7 10 9 21 14 24 10 6 -6 -12
-142 -26 -196 -6 -23 -6 -39 2 -48 8 -10 6 -13 -8 -13 -26 0 -53 -58 -33 -71
12 -7 11 -9 -1 -9 -11 -1 -10 -4 5 -15 18 -15 18 -16 2 -44 l-17 -29 30 -7
c16 -4 30 -10 30 -15 0 -10 50 -43 56 -37 3 3 -3 12 -12 22 -15 14 -15 18 -3
26 21 13 47 11 56 -6 5 -8 24 -18 43 -21 l35 -7 -25 21 c-14 12 -23 22 -20 23
3 1 20 2 39 4 24 2 30 0 20 -7 -28 -19 7 -2 66 32 33 19 63 35 68 36 4 1 12 2
18 3 5 0 7 6 3 13 -4 6 -3 8 4 4 6 -3 18 1 26 10 9 8 16 12 16 8 0 -3 7 -1 15
6 8 7 12 17 8 23 -3 6 -1 7 5 3 19 -11 -3 -37 -81 -95 -38 -28 -76 -50 -84
-47 -8 3 -11 1 -8 -4 9 -14 -189 -105 -275 -126 -41 -10 -107 -18 -146 -19
-41 0 -70 -4 -66 -9 6 -11 -230 -1 -343 14 -181 25 -394 93 -513 163 -34 20
-126 56 -146 57 -5 0 4 -10 20 -22 16 -13 41 -34 56 -47 16 -13 39 -31 52 -40
14 -9 52 -35 85 -58 33 -24 63 -43 66 -43 2 0 35 -19 72 -43 37 -23 95 -55
128 -71 33 -16 81 -39 107 -52 27 -13 55 -24 63 -24 8 0 23 -4 33 -10 28 -15
84 -37 127 -51 22 -6 49 -16 60 -20 33 -14 161 -44 255 -59 30 -5 84 -14 120
-21 102 -18 533 -15 655 5 55 9 109 21 120 26 11 5 38 11 60 13 53 6 151 35
197 58 10 5 26 9 37 9 11 0 34 8 53 17 60 30 68 33 82 33 27 0 240 111 375
194 170 105 275 191 420 342 68 71 131 140 140 154 9 14 26 33 38 43 13 10 23
22 23 27 0 5 10 20 23 34 41 45 67 84 67 100 0 9 6 19 14 22 8 3 20 20 27 37
7 18 20 37 29 44 10 8 11 12 3 13 -19 0 -16 27 5 35 15 6 15 8 1 18 -8 7 -18
20 -22 30 -4 10 -11 16 -15 13 -5 -3 -12 65 -16 152 -10 190 -10 192 -37 317
-69 327 -222 598 -453 803 l-59 53 -39 -68 c-22 -37 -67 -96 -101 -131 -54
-55 -87 -80 -184 -138 l-22 -14 36 -62 c115 -202 168 -305 286 -560 126 -270
166 -347 194 -376 15 -16 17 -26 3 -17 -5 3 -10 -2 -11 -12 0 -10 -6 -2 -12
17 l-12 35 -232 0 c-127 0 -234 3 -236 5 -14 15 -122 220 -246 467 l-142 283
-138 0 -139 0 -40 63 c-22 34 -70 112 -108 172 -78 128 -137 220 -205 324 -27
41 -49 78 -49 83 0 10 -118 187 -207 310 -35 48 -63 92 -63 97 0 15 96 72 146
87 26 8 64 14 86 14 l38 0 0 226 0 226 138 -4 c75 -2 214 -1 307 1 154 4 162
5 90 11 -44 4 -120 19 -168 34 -213 62 -494 15 -666 -112 -19 -14 -31 -21 -28
-14 4 6 -1 15 -10 21 -17 9 -16 11 5 26 12 9 19 21 16 27 -4 6 3 5 16 -2 33
-17 36 -4 6 24 -17 15 -23 27 -16 31 8 5 8 11 -1 21 -7 8 -7 14 -1 14 5 0 12
10 15 22 5 18 8 19 21 8 14 -11 16 -6 16 44 0 56 -6 66 -27 45 -8 -8 -13 6
-19 53 -8 55 -12 63 -31 66 -20 3 -23 -1 -23 -27 0 -17 -4 -31 -10 -31 -5 0
-10 -11 -10 -25 0 -14 -4 -25 -10 -25 -5 0 -10 7 -10 15 0 8 -4 15 -10 15 -5
0 -10 13 -10 29 0 16 -6 31 -12 34 -8 2 -9 8 -4 13 5 5 11 4 13 -3 9 -24 23
-13 23 17 0 23 5 30 19 30 11 0 21 -6 24 -12 2 -7 8 -10 12 -6 14 13 -24 38
-58 38 -30 0 -34 3 -30 19 3 11 13 21 24 24 24 6 36 36 19 47 -9 6 -6 11 11
21 13 7 30 12 37 11 6 -2 12 2 12 8 0 5 -12 10 -27 10 -26 1 -27 1 -8 12 11 7
26 18 33 25 8 7 19 10 25 6 7 -3 8 -2 4 2 -4 5 9 19 30 32 21 13 31 23 23 22
-8 0 -55 -26 -105 -56z m-45 -113 c0 -5 -7 -10 -16 -10 -8 0 -12 5 -9 10 3 6
10 10 16 10 5 0 9 -4 9 -10z m-80 -4 c0 -2 -8 -10 -17 -17 -16 -13 -17 -12 -4
4 13 16 21 21 21 13z m3 -91 c-3 -9 -8 -14 -10 -11 -3 3 -2 9 2 15 9 16 15 13
8 -4z m2434 -2747 c-3 -8 -6 -5 -6 6 -1 11 2 17 5 13 3 -3 4 -12 1 -19z m-386
-45 c-12 -20 -14 -14 -5 12 4 9 9 14 11 11 3 -2 0 -13 -6 -23z m-1479 -545
c-9 -9 -15 -9 -24 1 -11 10 -10 11 5 6 10 -5 17 -2 17 6 0 7 3 9 7 6 4 -4 1
-13 -5 -19z"/>
<path d="M2232 4258 c6 -18 28 -21 28 -4 0 9 -7 16 -16 16 -9 0 -14 -5 -12
-12z"/>
<path d="M2200 4206 c0 -2 9 -6 20 -9 11 -3 18 -1 14 4 -5 9 -34 13 -34 5z"/>
<path d="M540 3891 c0 -6 4 -13 10 -16 6 -3 7 1 4 9 -7 18 -14 21 -14 7z"/>
<path d="M575 3880 c-3 -5 -1 -10 4 -10 6 0 11 5 11 10 0 6 -2 10 -4 10 -3 0
-8 -4 -11 -10z"/>
<path d="M502 3858 c-15 -15 -16 -52 -2 -43 6 4 8 11 4 16 -3 5 0 16 6 24 15
18 9 20 -8 3z"/>
<path d="M526 3843 c-3 -8 -4 -19 0 -24 10 -16 -24 -41 -47 -34 -18 6 -19 4
-11 -12 5 -10 6 -29 1 -43 l-7 -25 -2 25 c-1 14 -4 19 -7 12 -2 -6 -10 -9 -16
-6 -8 5 -8 2 1 -7 17 -18 15 -32 -3 -25 -10 3 -17 -3 -21 -20 -4 -14 -4 -28 0
-31 3 -3 -2 -11 -11 -18 -11 -8 -16 -28 -17 -62 -1 -28 -4 -49 -8 -46 -5 2 -8
-4 -8 -14 0 -10 -7 -76 -14 -148 -14 -133 -9 -321 13 -430 16 -80 79 -281 110
-350 58 -127 162 -256 265 -329 55 -40 137 -86 151 -86 3 0 5 298 5 662 0 364
-2 659 -5 657 -2 -3 -5 -107 -6 -233 0 -125 -3 -225 -6 -222 -3 3 -5 33 -5 66
1 46 -2 60 -14 60 -8 0 -14 -4 -14 -10 0 -5 -4 -10 -10 -10 -21 0 -9 20 15 26
17 4 25 13 25 28 -1 19 -2 19 -11 4 -15 -27 -31 -21 -26 10 2 15 2 21 0 15 -6
-18 -33 -16 -33 1 0 8 7 21 15 30 16 16 6 29 -17 21 -19 -7 -33 6 -46 44 -12
35 -6 63 9 40 7 -11 9 -10 9 4 0 12 -12 23 -30 30 -20 8 -30 18 -30 32 1 19 2
19 21 -4 11 -13 22 -22 24 -19 7 7 -45 108 -56 108 -4 0 -6 7 -3 15 4 8 -1 17
-9 21 -9 3 -13 12 -11 19 3 7 1 16 -5 20 -6 3 -11 12 -11 20 0 8 -5 26 -11 42
-10 26 -12 27 -20 8 -7 -15 -8 -12 -3 12 6 37 -12 113 -27 113 -6 0 -8 7 -5
16 3 9 -1 25 -9 36 -17 26 -61 33 -69 11z m28 -19 c3 -8 2 -12 -4 -9 -6 3 -10
10 -10 16 0 14 7 11 14 -7z m153 -556 c-3 -7 -5 -2 -5 12 0 14 2 19 5 13 2 -7
2 -19 0 -25z"/>
<path d="M2338 3793 c7 -3 16 -2 19 1 4 3 -2 6 -13 5 -11 0 -14 -3 -6 -6z"/>
<path d="M2315 3761 c-3 -5 -1 -12 5 -16 5 -3 10 1 10 9 0 18 -6 21 -15 7z"/>
<path d="M3263 3713 c15 -2 37 -2 50 0 12 2 0 4 -28 4 -27 0 -38 -2 -22 -4z"/>
<path d="M3378 3703 c6 -2 18 -2 25 0 6 3 1 5 -13 5 -14 0 -19 -2 -12 -5z"/>
<path d="M2247 3693 c-4 -3 -7 -11 -7 -17 0 -6 5 -4 10 4 7 11 10 11 10 2 0
-7 5 -10 10 -7 6 4 8 11 5 16 -7 11 -19 12 -28 2z"/>
<path d="M898 3522 c-4 -15 -1 -18 21 -14 23 5 24 6 6 12 -18 7 -18 8 5 12
l25 5 -26 2 c-18 1 -28 -5 -31 -17z"/>
<path d="M988 3533 c6 -2 18 -2 25 0 6 3 1 5 -13 5 -14 0 -19 -2 -12 -5z"/>
<path d="M1013 3513 c37 -2 96 -2 130 0 34 2 4 3 -68 3 -71 0 -99 -1 -62 -3z"/>
<path d="M3856 3437 c3 -10 9 -15 12 -12 3 3 0 11 -7 18 -10 9 -11 8 -5 -6z"/>
<path d="M3890 3396 c0 -4 10 -22 22 -39 13 -18 23 -34 23 -37 0 -3 6 -14 14
-25 11 -17 12 -17 7 -2 -3 10 -6 22 -6 27 0 5 -6 15 -13 22 -7 7 -21 24 -30
38 -9 13 -17 21 -17 16z"/>
<path d="M4062 3345 c0 -16 2 -22 5 -12 2 9 2 23 0 30 -3 6 -5 -1 -5 -18z"/>
<path d="M3970 3241 c0 -5 5 -13 10 -16 6 -3 10 -2 10 4 0 5 -4 13 -10 16 -5
3 -10 2 -10 -4z"/>
<path d="M3986 3190 c3 -14 9 -48 13 -75 l9 -50 0 45 c1 25 -5 59 -13 75 -12
26 -14 27 -9 5z"/>
<path d="M1297 3083 c-4 -3 -7 -141 -7 -305 l0 -298 119 0 c65 0 138 -3 163
-6 42 -6 47 -4 94 37 27 23 48 49 48 56 -1 7 3 10 8 7 6 -4 8 -1 6 7 -3 8 -11
13 -18 11 -11 -3 -11 0 0 13 11 14 14 14 25 -1 11 -15 12 -15 12 2 0 27 -24
47 -50 41 -21 -6 -21 -6 -3 8 11 8 25 15 30 16 6 0 2 4 -9 9 -11 4 -30 6 -42
3 -19 -4 -23 -1 -23 17 0 19 -4 21 -27 16 -20 -5 -24 -4 -14 3 12 8 12 12 2
25 -11 13 -11 16 3 16 10 0 16 8 15 23 0 12 -3 16 -6 10 -7 -20 -23 -15 -23 6
0 29 -29 53 -56 47 -30 -8 -42 13 -19 30 10 8 17 15 14 18 -14 12 -51 26 -71
26 -13 0 -34 7 -46 16 -12 8 -22 11 -22 6 0 -6 -9 -8 -20 -5 -11 3 -26 1 -33
-4 -6 -6 -20 -13 -29 -16 -16 -6 -18 2 -17 81 0 48 3 81 6 74 3 -8 9 -10 16
-3 7 5 26 11 42 14 22 3 18 4 -16 6 -25 0 -49 -2 -52 -6z m65 -203 c-14 -15
-22 -18 -27 -10 -9 14 27 51 39 40 4 -5 -1 -18 -12 -30z m228 -124 c0 -11 -19
-15 -25 -6 -3 5 1 10 9 10 9 0 16 -2 16 -4z"/>
<path d="M4013 2965 c-1 -69 2 -88 7 -62 4 20 4 65 0 100 -7 57 -7 54 -7 -38z"/>
<path d="M1660 2710 c0 -5 5 -10 10 -10 6 0 10 5 10 10 0 6 -4 10 -10 10 -5 0
-10 -4 -10 -10z"/>
<path d="M3108 2643 c6 -2 18 -2 25 0 6 3 1 5 -13 5 -14 0 -19 -2 -12 -5z"/>
<path d="M1313 1778 c1 -202 6 -313 12 -312 6 1 27 5 48 8 24 5 37 4 33 -2 -7
-12 414 -25 654 -21 165 4 178 6 232 31 116 54 189 159 196 281 8 125 -56 230
-175 289 l-68 33 -466 3 -467 3 1 -313z"/>
<path d="M893 1775 c0 -33 2 -45 4 -27 2 18 2 45 0 60 -2 15 -4 0 -4 -33z"/>
<path d="M1238 1463 c7 -3 16 -2 19 1 4 3 -2 6 -13 5 -11 0 -14 -3 -6 -6z"/>
<path d="M2128 473 c6 -2 18 -2 25 0 6 3 1 5 -13 5 -14 0 -19 -2 -12 -5z"/>
</g>
</svg>
