<?xml version="1.0" standalone="no"?>
<!DOCTYPE svg PUBLIC "-//W3C//DTD SVG 20010904//EN"
 "http://www.w3.org/TR/2001/REC-SVG-20010904/DTD/svg10.dtd">
<svg version="1.0" xmlns="http://www.w3.org/2000/svg"
 width="800.000000pt" height="800.000000pt" viewBox="0 0 800.000000 800.000000"
 preserveAspectRatio="xMidYMid meet">

<g transform="translate(0.000000,800.000000) scale(0.100000,-0.100000)"
fill="#000000" stroke="none">
<path d="M4085 6110 c-3 -5 -3 -15 1 -22 5 -7 2 -9 -8 -5 -28 10 -78 -62 -78
-112 0 -10 13 -22 34 -29 25 -9 38 -23 50 -53 20 -49 20 -70 2 -114 -15 -35
-15 -35 10 -35 33 0 72 -21 108 -59 22 -23 30 -43 34 -82 10 -108 -52 -158
-199 -161 l-84 -1 68 -10 68 -10 -7 -44 c-5 -37 -4 -43 12 -43 9 0 15 -3 11
-6 -14 -14 -153 -15 -192 -1 -85 31 -82 31 -55 6 43 -38 142 -79 217 -88 81
-10 203 1 256 22 125 53 245 172 252 249 6 71 -42 195 -94 242 -22 20 -22 20
-57 -15 l-35 -35 46 -96 c25 -52 45 -98 45 -102 0 -3 -22 -6 -49 -6 l-49 0
-41 80 c-37 71 -45 80 -70 80 -27 0 -49 29 -164 218 -6 9 0 16 22 25 28 10 31
16 31 54 l0 43 40 0 c41 0 57 19 18 21 -13 1 -45 2 -71 3 -37 2 -47 0 -43 -11
3 -7 0 -13 -5 -13 -7 0 -9 9 -6 21 4 14 1 19 -7 16 -11 -4 -13 10 -7 42 1 3 8
-4 16 -15 8 -10 15 -14 15 -7 0 6 -5 15 -10 18 -6 4 -8 15 -5 26 7 20 -9 27
-20 9z"/>
<path d="M3724 5993 c-21 -46 -24 -140 -5 -202 7 -27 28 -59 49 -80 l37 -36 3
96 c2 87 0 103 -29 177 -17 45 -32 82 -34 82 -1 0 -11 -17 -21 -37z"/>
<path d="M7184 5825 c11 -8 22 -12 25 -9 6 6 -19 24 -34 24 -5 -1 -1 -7 9 -15z"/>
<path d="M3917 5823 c-4 -3 -7 -23 -7 -43 0 -32 3 -36 29 -38 55 -4 63 50 11
78 -22 12 -25 12 -33 3z"/>
<path d="M7310 5800 c0 -5 7 -7 15 -4 8 4 15 8 15 10 0 2 -7 4 -15 4 -8 0 -15
-4 -15 -10z"/>
<path d="M7578 5783 c7 -3 16 -2 19 1 4 3 -2 6 -13 5 -11 0 -14 -3 -6 -6z"/>
<path d="M6659 5753 c-8 -15 -25 -38 -39 -50 l-25 -23 32 17 c38 21 79 83 55
83 -5 0 -15 -12 -23 -27z"/>
<path d="M7628 5773 c7 -3 16 -2 19 1 4 3 -2 6 -13 5 -11 0 -14 -3 -6 -6z"/>
<path d="M6570 5655 c-8 -9 -8 -15 -2 -15 12 0 26 19 19 26 -2 2 -10 -2 -17
-11z"/>
<path d="M3907 5653 c-3 -5 -3 -34 0 -65 l6 -55 94 -7 c90 -7 97 -6 119 15 30
28 31 70 3 95 -17 15 -40 20 -119 22 -54 2 -100 0 -103 -5z"/>
<path d="M7048 5646 c-11 -8 -14 -17 -8 -26 17 -28 -3 -31 -31 -4 -16 15 -32
24 -36 21 -3 -4 -1 -7 5 -7 7 0 12 -6 12 -14 0 -7 7 -19 15 -26 16 -13 21 -35
6 -25 -5 3 -12 1 -15 -4 -3 -5 5 -12 19 -15 21 -5 25 -12 25 -46 0 -22 3 -40
8 -40 16 0 34 19 28 29 -12 18 3 48 27 55 17 5 19 8 8 15 -8 5 -11 16 -6 30 5
17 2 21 -15 21 -17 0 -21 5 -17 20 7 25 -3 32 -25 16z"/>
<path d="M7145 5580 c-8 -13 5 -13 25 0 13 8 13 10 -2 10 -9 0 -20 -4 -23 -10z"/>
<path d="M6958 5573 c7 -3 16 -2 19 1 4 3 -2 6 -13 5 -11 0 -14 -3 -6 -6z"/>
<path d="M6960 5530 l-45 -7 58 -1 c37 -1 56 2 52 8 -3 6 -9 9 -13 8 -4 0 -27
-4 -52 -8z"/>
<path d="M7128 5493 c7 -3 16 -2 19 1 4 3 -2 6 -13 5 -11 0 -14 -3 -6 -6z"/>
<path d="M6563 5478 c-28 -14 -29 -20 -3 -43 24 -21 25 -20 35 23 7 34 3 37
-32 20z"/>
<path d="M7000 5445 c-7 -9 -8 -15 -2 -15 5 0 12 7 16 15 3 8 4 15 2 15 -2 0
-9 -7 -16 -15z"/>
<path d="M5277 5361 c-3 -12 -1 -21 3 -21 15 0 23 21 12 32 -6 6 -11 2 -15
-11z"/>
<path d="M5222 5351 c13 -21 28 -19 28 5 0 8 -9 14 -20 14 -17 0 -19 -3 -8
-19z"/>
<path d="M5329 5333 c-9 -2 -19 -15 -22 -29 -5 -27 5 -31 23 -10 6 8 18 12 26
9 9 -3 14 2 14 16 0 20 -8 23 -41 14z"/>
<path d="M5390 5330 c8 -5 20 -10 25 -10 6 0 3 5 -5 10 -8 5 -19 10 -25 10 -5
0 -3 -5 5 -10z"/>
<path d="M5195 5320 c-3 -6 1 -7 9 -4 18 7 21 14 7 14 -6 0 -13 -4 -16 -10z"/>
<path d="M5230 5280 c0 -11 5 -20 10 -20 6 0 10 9 10 20 0 11 -4 20 -10 20 -5
0 -10 -9 -10 -20z"/>
<path d="M6135 5268 c-15 -42 -25 -113 -25 -181 0 -72 -5 -90 -56 -215 -31
-75 -71 -167 -91 -205 l-34 -69 -42 5 -42 6 29 -24 28 -23 -42 -71 c-39 -66
-41 -73 -30 -101 24 -59 63 -31 112 79 31 69 63 111 84 111 6 0 36 16 64 35
29 20 55 33 59 30 8 -8 60 -163 70 -208 8 -36 56 -107 77 -114 5 -1 20 6 33
16 l25 19 -21 78 c-25 94 -38 197 -35 279 2 58 3 61 52 105 27 25 50 48 50 53
0 13 -35 7 -67 -13 -18 -10 -34 -16 -37 -12 -2 4 -4 81 -5 171 0 91 -5 179
-11 196 -6 17 -23 38 -39 48 -34 20 -100 23 -106 5z m-11 -425 c21 -108 20
-118 -17 -146 -37 -28 -62 -34 -71 -18 -5 8 44 157 60 182 10 17 22 9 28 -18z"/>
<path d="M5365 5260 c-3 -5 -1 -10 4 -10 6 0 11 5 11 10 0 6 -2 10 -4 10 -3 0
-8 -4 -11 -10z"/>
<path d="M5305 5240 c3 -5 8 -10 11 -10 2 0 4 5 4 10 0 6 -5 10 -11 10 -5 0
-7 -4 -4 -10z"/>
<path d="M7546 5204 c-3 -9 -1 -24 4 -34 17 -32 12 -42 -12 -26 -12 9 -25 16
-29 16 -13 0 -18 -45 -6 -55 6 -5 20 -26 29 -45 10 -19 26 -46 35 -60 20 -27
16 -25 -54 22 -49 33 -64 35 -80 9 -10 -16 -6 -22 29 -45 22 -14 53 -26 69
-26 28 0 36 -13 21 -36 -4 -6 -25 -14 -46 -17 -39 -6 -86 -40 -74 -53 9 -9 79
15 102 35 18 15 19 15 13 -21 -3 -20 -17 -54 -31 -75 -17 -25 -22 -39 -14 -44
6 -4 8 -15 4 -25 -6 -15 -9 -16 -15 -5 -11 18 -31 5 -31 -19 0 -13 5 -17 15
-14 20 8 20 -41 0 -80 -20 -37 -19 -46 3 -46 18 0 35 24 47 68 4 12 10 22 15
22 12 0 18 -36 8 -53 -10 -19 6 -88 29 -124 11 -17 25 -23 50 -23 30 0 34 2
23 15 -10 12 -10 18 -1 29 15 18 10 293 -6 347 -8 27 -7 42 2 60 9 17 10 29 3
42 -7 13 -6 23 1 30 6 6 11 37 11 69 0 45 -3 56 -14 52 -10 -4 -15 8 -21 42
-5 34 -12 48 -26 51 -10 3 -19 9 -19 13 0 15 -28 18 -34 4z"/>
<path d="M5614 5152 c-16 -10 -38 -96 -66 -266 l-13 -79 -43 -19 c-23 -11 -53
-18 -65 -16 -27 4 -28 38 -3 147 11 52 13 78 6 85 -30 30 -71 -58 -105 -223
-9 -41 -21 -82 -28 -90 -10 -12 -9 -13 2 -6 11 6 13 3 8 -16 -4 -13 -7 -29 -7
-35 0 -7 -9 -14 -21 -17 -16 -4 -18 -3 -8 9 9 11 8 14 -5 14 -19 0 -21 11 -5
27 9 9 6 10 -10 6 -29 -7 -38 -36 -33 -101 3 -44 8 -55 28 -64 24 -11 24 -13
21 -142 l-2 -131 29 2 c51 4 62 34 73 196 6 91 9 103 34 132 40 45 90 69 108
51 10 -11 11 -29 4 -87 -12 -87 -11 -349 0 -366 5 -9 25 -2 70 24 34 20 64 39
67 41 3 2 10 104 16 227 7 155 15 229 24 240 7 8 44 32 81 51 59 31 70 41 79
73 13 49 13 74 -2 68 -7 -2 -12 -14 -11 -25 3 -22 -16 -30 -105 -48 -37 -7
-42 6 -14 34 14 14 16 22 8 35 -10 16 -4 66 26 196 11 49 11 54 -7 67 -20 15
-112 19 -131 6z m-178 -417 c-11 -8 -25 -15 -30 -15 -6 0 -2 7 8 15 11 8 25
15 30 15 6 0 2 -7 -8 -15z m81 -20 c0 -9 -9 -14 -21 -13 -12 1 -31 -2 -43 -6
-12 -4 -24 -2 -28 4 -3 6 3 10 17 10 13 0 30 5 38 10 22 14 37 12 37 -5z"/>
<path d="M4994 4929 c-65 -25 -114 -88 -204 -265 -36 -70 -71 -130 -78 -132
-10 -3 -11 18 -6 101 6 98 5 106 -15 126 -15 15 -33 21 -65 21 -83 0 -91 -8
-109 -104 -8 -47 -13 -93 -11 -104 3 -10 -4 -67 -15 -126 -21 -109 -27 -274
-13 -366 7 -43 9 -45 41 -43 48 2 104 50 114 99 31 145 65 241 140 389 19 39
58 117 86 174 39 77 55 101 63 93 9 -9 8 -33 -1 -94 -7 -46 -14 -153 -16 -238
-4 -219 16 -267 101 -246 37 10 92 64 114 113 26 58 16 74 -21 31 -42 -49 -49
-28 -44 122 3 97 11 152 35 245 22 86 29 131 24 160 -11 71 -31 78 -120 44z"/>
<path d="M7345 4871 c-10 -17 12 -21 25 -6 10 12 10 15 -3 15 -9 0 -18 -4 -22
-9z"/>
<path d="M4290 4826 c-113 -42 -192 -98 -175 -126 3 -5 1 -11 -5 -15 -23 -14
-9 -34 28 -37 l37 -3 3 -86 c1 -47 -2 -113 -8 -145 -6 -32 -15 -93 -21 -134
-6 -41 -13 -84 -15 -95 -2 -12 -27 -34 -58 -53 -61 -36 -86 -65 -86 -99 0 -25
13 -28 71 -16 28 5 30 7 14 14 -20 7 -20 7 0 14 11 4 53 21 93 36 74 29 129
38 117 19 -4 -6 5 -10 20 -10 30 0 34 8 37 75 l3 50 -45 0 -45 0 1 50 c3 99
34 407 44 425 5 10 30 26 55 35 48 19 51 27 34 72 -17 46 -37 51 -99 29z m40
-85 c0 -11 -31 -24 -39 -16 -3 3 1 10 9 15 19 12 30 12 30 1z"/>
<path d="M7478 4822 c-8 -9 -34 -32 -57 -50 -48 -39 -54 -59 -11 -37 17 9 30
20 30 25 0 5 8 11 18 14 19 6 49 52 41 61 -3 2 -12 -3 -21 -13z"/>
<path d="M3705 4776 c-17 -7 -46 -28 -65 -47 -20 -19 -47 -39 -62 -46 -45 -20
-75 -104 -119 -328 -32 -167 -13 -284 61 -367 102 -116 234 -104 327 29 65 94
74 132 82 358 8 212 6 238 -29 310 -42 86 -121 123 -195 91z m122 -173 c15
-22 18 -50 18 -157 0 -78 -6 -153 -14 -186 -33 -132 -128 -274 -180 -268 -22
3 -31 16 -65 93 -29 67 -41 108 -44 159 l-4 69 45 -6 c56 -8 59 -4 82 93 24
102 62 200 83 216 28 22 60 16 79 -13z"/>
<path d="M7325 4669 c-11 -17 1 -21 15 -4 8 9 8 15 2 15 -6 0 -14 -5 -17 -11z"/>
<path d="M3043 4572 c-43 -43 -86 -96 -96 -118 -40 -83 -48 -102 -81 -191 -42
-110 -55 -157 -61 -216 -4 -37 0 -48 26 -76 16 -18 33 -47 36 -63 6 -32 45
-54 134 -78 59 -16 85 -6 147 57 51 53 55 55 68 38 8 -10 14 -24 14 -31 0 -6
14 -17 30 -24 27 -11 32 -11 45 6 8 11 12 26 9 34 -4 8 -8 44 -11 80 -5 77 8
108 56 132 57 29 67 65 26 92 -23 15 -29 15 -73 0 -26 -9 -85 -17 -132 -19
l-85 -3 3 -27 c4 -33 21 -52 55 -60 31 -8 40 -27 28 -58 -10 -27 -108 -143
-116 -139 -3 2 -17 -6 -31 -17 l-25 -20 -37 35 c-36 34 -37 36 -35 107 2 91
44 287 84 394 45 117 114 176 164 139 17 -12 21 -29 25 -127 l5 -113 40 -8
c35 -8 42 -6 67 20 52 51 57 200 9 256 -33 38 -114 76 -163 76 -45 0 -49 -3
-125 -78z"/>
<path d="M2545 4628 c-18 -54 -25 -104 -25 -174 0 -78 -3 -89 -69 -249 -38
-91 -81 -184 -96 -206 -24 -37 -28 -39 -63 -34 -34 6 -36 5 -18 -9 10 -8 24
-17 30 -19 8 -3 6 -12 -3 -28 -8 -13 -27 -46 -42 -73 -26 -48 -29 -50 -100
-68 -40 -10 -81 -16 -90 -13 -19 6 -34 54 -25 82 8 25 36 428 36 511 0 97 -24
116 -79 61 -33 -33 -45 -70 -56 -179 -3 -36 -15 -136 -26 -222 -11 -86 -24
-203 -29 -260 -7 -76 -15 -110 -30 -130 -11 -15 -18 -33 -16 -40 3 -7 7 -25
10 -40 4 -15 15 -32 27 -38 26 -14 72 13 131 78 79 87 190 156 247 154 41 -2
48 7 100 115 33 69 45 84 75 97 20 8 56 29 81 46 32 22 46 27 49 18 2 -7 16
-49 31 -93 14 -44 30 -94 35 -112 11 -45 48 -101 70 -108 22 -7 60 10 60 27 0
6 -9 46 -19 87 -27 107 -39 209 -34 276 4 50 10 62 36 84 17 14 43 36 57 48
l25 22 -31 1 c-16 0 -39 -7 -50 -15 -39 -30 -41 -22 -42 160 -2 185 -9 222
-51 245 -28 14 -101 13 -106 -2z m-15 -395 c0 -5 5 -37 10 -72 12 -71 4 -88
-54 -118 -57 -30 -55 3 11 165 12 28 33 44 33 25z"/>
<path d="M7583 4404 c-3 -8 -12 -13 -19 -10 -10 4 -14 -3 -14 -19 0 -24 -15
-35 -22 -16 -1 4 -13 11 -25 15 -22 7 -22 6 -8 -20 14 -27 11 -49 -5 -39 -4 3
-6 -4 -3 -15 4 -16 0 -20 -17 -20 -13 0 -24 -8 -27 -20 -3 -11 -12 -20 -21
-20 -8 0 -12 3 -9 7 4 3 2 12 -4 20 -9 9 -8 17 0 27 14 17 0 29 -23 20 -10 -4
-18 0 -22 10 -11 29 -26 17 -22 -19 4 -37 -1 -41 -32 -25 -16 8 -18 8 -14 -5
4 -8 12 -15 20 -15 19 0 18 -24 -1 -40 -25 -21 -17 -46 25 -74 22 -14 40 -30
40 -35 0 -6 -14 -20 -31 -32 -27 -19 -29 -23 -15 -31 19 -10 23 -78 5 -78 -7
0 -31 -12 -55 -27 l-43 -27 31 -11 c17 -5 36 -19 42 -30 6 -11 16 -23 22 -27
7 -5 9 -27 6 -58 -3 -33 -1 -50 7 -50 18 0 12 -29 -8 -40 -11 -5 -23 -19 -26
-30 -3 -11 -17 -23 -31 -26 -37 -9 -29 -27 9 -19 43 9 150 46 162 57 5 4 20 8
33 8 30 0 24 -24 -6 -28 -12 -2 -22 -10 -22 -17 0 -8 -8 -20 -18 -27 -10 -7
-21 -21 -25 -30 -3 -10 -13 -18 -22 -18 -22 0 -19 -18 5 -25 11 -3 20 -11 20
-16 0 -18 -29 -9 -53 17 -21 22 -30 25 -73 21 -27 -3 -57 -8 -67 -12 -10 -4
-43 -2 -74 4 -68 13 -83 14 -83 2 0 -19 76 -35 151 -32 47 2 79 -2 84 -8 10
-17 23 -13 20 7 -1 9 0 11 2 4 5 -15 55 -42 78 -42 9 0 13 -4 10 -10 -7 -11 8
-13 66 -10 20 1 43 -5 50 -13 9 -9 22 -11 34 -6 31 12 45 10 45 -5 0 -16 -27
-29 -41 -20 -16 10 -38 -16 -45 -52 -7 -38 -20 -43 -40 -16 -10 13 -15 14 -25
5 -8 -9 -18 -9 -31 -2 -22 12 -87 -6 -90 -24 0 -7 -2 -24 -3 -38 -1 -14 -5
-31 -8 -36 -10 -16 15 -22 61 -16 29 4 39 9 35 19 -3 8 1 14 11 14 9 0 16 -7
16 -15 0 -18 75 -22 86 -4 6 11 59 8 102 -6 21 -7 22 -5 22 64 0 69 -1 71 -25
71 -18 0 -25 5 -25 18 0 10 11 25 25 32 l25 13 0 234 c0 134 -4 233 -9 233 -5
0 -11 -4 -13 -10 -1 -5 -13 -7 -24 -4 -17 5 -22 14 -22 45 -1 43 11 50 30 19
22 -35 38 -24 38 25 l0 44 -46 -19 c-25 -11 -50 -18 -55 -15 -13 9 1 97 19
118 8 9 12 20 9 24 -4 3 -7 3 -7 -1 0 -4 -7 -1 -15 8 -8 8 -15 17 -15 20 0 3
7 3 15 0 8 -4 15 -1 15 6 0 12 27 10 63 -5 13 -5 17 -2 17 13 0 12 -5 24 -10
27 -7 4 -7 12 0 25 14 27 12 40 -6 40 -11 0 -14 6 -9 23 4 12 11 26 16 32 15
16 10 38 -7 31 -9 -3 -12 -2 -8 5 3 6 -3 19 -15 30 -25 23 -30 24 -38 3z m-79
-222 c24 -18 24 -42 0 -42 -8 0 -19 12 -24 26 -16 41 -11 44 24 16z m-11 -90
c-18 -59 -26 -70 -54 -76 -16 -3 -36 -3 -44 0 -17 7 -21 34 -5 34 6 0 10 9 10
20 0 14 7 20 24 20 13 0 29 6 36 14 15 19 40 9 33 -12z m16 -75 c-2 -1 -12 -9
-22 -16 -15 -12 -17 -12 -11 3 3 9 13 16 22 16 8 0 13 -1 11 -3z m-91 -59 c2
-26 -2 -44 -10 -50 -22 -14 -28 -9 -28 22 0 17 5 30 10 30 6 0 10 9 10 20 0
38 15 20 18 -22z m-53 -88 c-3 -5 -10 -10 -16 -10 -5 0 -9 5 -9 10 0 6 7 10
16 10 8 0 12 -4 9 -10z m190 -20 c18 -20 17 -20 -12 -20 -20 0 -42 -10 -63
-30 -36 -33 -45 -37 -37 -15 4 8 1 18 -5 21 -8 5 -5 10 8 15 18 7 17 8 -3 8
-16 1 -21 6 -17 16 7 17 34 21 34 5 0 -16 30 -12 36 5 8 21 38 19 59 -5z m45
-4 c0 -3 -4 -8 -10 -11 -5 -3 -10 -1 -10 4 0 6 5 11 10 11 6 0 10 -2 10 -4z
m-190 -36 c0 -5 -9 -10 -20 -10 -11 0 -20 5 -20 10 0 6 9 10 20 10 11 0 20 -4
20 -10z m190 -455 c0 -8 -4 -15 -10 -15 -5 0 -10 7 -10 15 0 8 5 15 10 15 6 0
10 -7 10 -15z m-210 -85 c0 -5 -4 -10 -10 -10 -5 0 -10 5 -10 10 0 6 5 10 10
10 6 0 10 -4 10 -10z"/>
<path d="M5167 3915 c-27 -7 -52 -17 -55 -21 -10 -10 63 5 100 21 41 18 19 18
-45 0z"/>
<path d="M6836 3763 c-6 -14 -5 -15 5 -6 7 7 10 15 7 18 -3 3 -9 -2 -12 -12z"/>
<path d="M1324 3512 c2 -4 -16 -14 -41 -22 -41 -12 -50 -11 -76 3 -16 10 -35
17 -43 17 -17 0 -19 -27 -1 -33 9 -3 8 -9 -4 -21 -15 -16 -18 -16 -45 0 -39
22 -99 13 -107 -16 -3 -13 0 -20 10 -20 8 0 13 -6 10 -12 -2 -7 -15 -13 -28
-13 -28 0 -39 -32 -15 -41 22 -8 20 -19 -6 -45 l-23 -21 43 7 c28 4 42 3 42
-4 0 -6 -7 -11 -15 -11 -8 0 -15 -4 -15 -9 0 -5 -8 -11 -17 -14 -10 -2 8 -2
41 1 58 5 58 5 47 -17 -10 -19 -17 -21 -49 -15 -42 9 -42 9 -137 5 l-70 -3 55
-15 c30 -8 73 -14 94 -14 34 2 37 0 26 -14 -18 -22 -7 -29 68 -41 l67 -11 -32
-14 c-33 -13 -45 -39 -19 -39 23 0 37 -24 23 -40 -10 -10 -8 -12 11 -7 32 8
86 -25 70 -41 -14 -14 -35 -16 -40 -3 -1 4 -52 32 -111 62 -89 44 -119 54
-170 56 -60 4 -100 -8 -84 -24 5 -4 26 -7 48 -7 21 1 39 -2 39 -7 0 -5 -8 -9
-18 -9 -11 0 -18 -7 -18 -20 0 -14 7 -20 21 -20 15 0 16 3 7 9 -10 6 -1 11 27
19 33 8 41 7 41 -4 0 -8 -7 -14 -15 -14 -8 0 -15 -4 -15 -10 0 -5 11 -10 25
-10 30 0 32 -11 5 -28 -28 -17 -25 -26 15 -48 19 -10 35 -22 35 -26 0 -4 -17
-10 -37 -14 l-38 -7 29 -8 c20 -6 38 -2 64 12 20 10 51 22 69 25 33 6 46 24
18 24 -8 0 -15 5 -15 10 0 20 31 10 62 -20 17 -16 37 -30 44 -30 8 0 14 -4 14
-9 0 -6 -15 -7 -32 -5 -26 4 -40 -1 -68 -25 -34 -29 -35 -30 -15 -44 24 -19
11 -36 -14 -20 -16 10 -21 8 -35 -20 -9 -20 -16 -25 -16 -14 0 10 -8 17 -18
17 -10 0 -23 5 -29 11 -8 8 -13 8 -17 0 -4 -6 -40 -11 -84 -11 -83 0 -137 -15
-180 -48 l-27 -21 35 10 c49 13 52 12 45 -12 -10 -30 13 -14 25 17 9 23 50 35
50 14 0 -5 -7 -10 -15 -10 -8 0 -15 -4 -15 -10 0 -15 20 -12 69 10 83 38 66
-5 -25 -62 -32 -21 -88 -54 -124 -75 -43 -25 -59 -39 -47 -41 9 -2 17 -7 17
-12 0 -5 7 -7 15 -4 9 4 15 0 15 -10 0 -9 7 -16 16 -16 8 0 13 4 9 9 -3 5 -1
13 5 16 8 5 8 11 0 20 -9 11 -6 16 12 26 12 7 29 18 36 26 23 23 61 27 82 8
14 -13 28 -16 55 -11 48 9 47 -14 -2 -38 -21 -10 -46 -22 -55 -27 -26 -13 -41
-11 -35 5 4 9 1 13 -6 11 -7 -2 -24 -6 -39 -9 -34 -8 -36 -21 -4 -22 31 -2
114 -51 126 -75 9 -15 8 -17 -7 -12 -10 4 -27 12 -38 19 -11 7 -45 15 -75 19
-71 8 -120 26 -120 41 0 22 -19 25 -51 8 -25 -12 -29 -18 -18 -25 19 -12 6
-11 -27 1 -21 8 -29 8 -36 -2 -5 -9 -8 -9 -8 -1 0 6 23 25 50 42 34 21 50 37
50 52 0 16 -4 19 -22 13 -21 -6 -20 -5 5 25 27 33 34 51 19 51 -17 0 -92 -72
-92 -88 0 -19 -38 -48 -57 -44 -21 4 -49 -15 -102 -70 l-51 -53 0 -87 c0 -81
2 -88 19 -88 11 0 23 5 26 10 3 6 19 10 35 10 34 0 50 19 26 32 -20 11 -21 29
-1 22 8 -4 18 -17 21 -30 11 -44 24 -25 24 36 0 58 10 75 27 45 5 -9 13 -11
22 -6 11 7 11 16 3 39 -10 30 -10 30 34 37 24 3 44 10 44 16 0 17 18 9 35 -17
16 -24 16 -25 -2 -15 -11 5 -24 6 -31 3 -13 -9 32 -72 52 -72 7 0 30 14 51 30
37 29 75 40 75 21 0 -6 -9 -16 -20 -24 -22 -15 -60 -82 -60 -104 0 -9 9 -11
30 -7 41 9 60 -10 60 -57 0 -28 -5 -41 -20 -49 -23 -12 -55 -78 -65 -132 -4
-21 -11 -38 -16 -38 -16 0 -14 118 2 135 17 17 9 23 -28 22 -21 0 -65 7 -98
16 -61 18 -155 15 -155 -4 0 -5 -6 -9 -14 -9 -8 0 -23 -11 -34 -25 -11 -14
-25 -25 -31 -25 -6 0 -11 -17 -11 -40 0 -31 5 -43 25 -56 22 -15 26 -15 40 0
21 21 32 20 39 -2 3 -9 15 -23 27 -30 18 -11 26 -10 56 8 20 12 42 19 48 16 7
-2 16 -2 19 1 3 3 22 7 42 9 l36 3 -42 -30 c-42 -31 -49 -49 -11 -30 54 28 61
31 71 31 5 0 10 -7 10 -15 0 -8 5 -15 10 -15 6 0 10 -4 10 -10 0 -5 -7 -10
-15 -10 -8 0 -14 5 -12 11 1 6 -4 14 -11 16 -10 4 -11 -2 -6 -24 10 -40 14
-45 35 -40 11 3 19 1 19 -4 0 -15 -46 -29 -82 -24 -18 2 -60 7 -93 10 -33 3
-78 8 -100 12 -22 4 -42 7 -45 8 -13 1 -30 17 -30 27 0 7 6 6 15 -2 27 -23 16
2 -19 40 l-34 38 -1 -114 c-1 -77 2 -114 9 -114 7 0 9 -8 5 -20 -8 -24 -12
-24 58 0 31 11 66 20 77 20 21 0 27 14 10 25 -16 10 -12 28 5 21 8 -3 15 -1
15 5 0 6 4 8 9 5 5 -3 7 -15 4 -26 -5 -18 0 -20 38 -21 42 0 40 -2 -36 -23
-96 -26 -140 -47 -139 -64 1 -6 2 -31 3 -54 2 -39 3 -41 12 -19 5 14 8 29 6
35 -8 21 46 14 64 -7 14 -18 18 -19 22 -7 3 8 8 22 10 30 3 8 6 -4 6 -27 1
-40 -1 -43 -43 -62 -24 -10 -61 -25 -82 -32 -22 -8 -42 -18 -46 -24 -9 -12
-10 -87 -2 -109 9 -24 22 -19 17 7 -4 19 8 34 59 78 34 30 66 58 70 64 4 5 8
1 8 -11 0 -11 -9 -29 -20 -39 -11 -10 -20 -24 -20 -32 0 -7 -4 -13 -10 -13 -5
0 -10 -5 -10 -12 0 -6 26 15 57 47 l58 58 3 -63 c3 -71 3 -72 -95 -121 -61
-30 -79 -49 -47 -49 8 0 13 -4 10 -9 -8 -13 22 -22 50 -15 17 4 23 11 19 23
-3 12 4 20 25 28 35 13 71 7 64 -12 -9 -23 17 -28 37 -6 10 11 19 25 19 31 0
5 5 10 10 10 6 0 10 6 9 13 -4 34 1 39 36 35 22 -2 36 1 39 9 3 7 12 10 21 7
11 -5 18 0 22 15 3 11 11 21 19 21 25 0 22 -15 -13 -50 -53 -54 -58 -68 -32
-89 14 -11 20 -24 16 -34 -9 -24 -22 -21 -36 10 -9 20 -15 23 -24 14 -8 -8 -6
-16 11 -33 l21 -22 -37 -45 c-20 -25 -42 -50 -49 -56 -6 -5 -32 -37 -57 -70
-124 -165 -143 -189 -163 -213 -31 -33 -29 -37 7 -15 27 16 113 106 148 155 7
10 19 18 25 18 7 0 21 13 30 30 11 18 23 27 32 23 8 -3 15 0 15 6 0 6 7 11 15
11 8 0 15 6 15 14 0 8 10 16 22 18 12 2 27 12 33 23 16 32 66 77 80 71 13 -5
13 -99 -1 -163 -8 -41 7 -43 24 -3 8 17 18 30 24 30 10 0 9 -8 -9 -94 -6 -28
-5 -29 30 -23 30 5 36 2 42 -16 7 -20 8 -19 12 8 6 38 20 54 29 32 7 -20 44
-23 62 -5 18 18 25 2 14 -31 -9 -25 -8 -31 3 -31 16 0 38 58 28 74 -4 6 -8 17
-9 24 -4 25 -14 26 -30 4 -16 -24 -44 -28 -75 -12 -27 15 -24 33 4 25 18 -6
20 -5 10 6 -17 17 -17 72 0 67 6 -3 13 -14 15 -26 2 -13 8 -19 18 -15 8 3 29
2 48 -1 l34 -6 5 -73 c4 -65 2 -74 -18 -92 -26 -23 -33 -43 -39 -104 -2 -24
-14 -57 -25 -72 -23 -30 -29 -75 -9 -63 8 5 9 0 4 -17 -15 -46 -18 -87 -7 -93
14 -9 32 34 42 103 4 30 12 57 17 60 5 3 12 23 16 44 4 21 11 35 17 32 13 -9
11 -42 -3 -65 -20 -31 3 -46 36 -25 23 15 26 24 26 76 0 64 14 87 24 36 31
-167 40 -363 17 -391 -8 -10 -9 -21 -3 -33 11 -21 5 -46 -9 -37 -5 3 -40 8
-77 10 -62 5 -65 4 -47 -10 11 -9 26 -16 33 -16 7 0 10 -4 7 -10 -12 -20 18
-38 50 -29 50 15 75 11 75 -10 0 -17 10 -20 93 -26 50 -3 162 -5 247 -3 132 3
154 5 151 18 -2 8 -5 81 -6 163 -2 81 -6 183 -10 227 -10 115 -32 117 -25 3 1
-18 -1 -42 -5 -53 -7 -22 -25 -27 -25 -7 0 17 -34 49 -43 41 -3 -4 0 -16 8
-28 8 -11 15 -39 14 -61 -1 -36 -2 -37 -9 -13 -4 14 -12 32 -16 40 -15 22 -34
82 -34 105 0 12 -5 25 -10 28 -6 4 -8 11 -5 16 4 5 -1 12 -9 15 -18 7 -21 41
-5 46 9 3 9 10 -1 27 -7 15 -8 21 -1 17 7 -5 11 10 11 46 0 38 -3 49 -10 38
-9 -13 -10 -13 -10 0 0 8 -7 28 -15 43 -8 15 -12 34 -8 42 3 9 -1 15 -11 15
-9 0 -15 3 -14 8 3 9 -34 92 -41 92 -3 -1 -15 -20 -26 -42 -22 -44 -45 -61
-45 -33 0 22 49 105 62 105 6 0 8 10 4 23 -4 16 1 29 15 41 21 17 21 17 14
-12 -4 -21 0 -42 14 -68 12 -21 21 -46 21 -56 0 -9 4 -19 9 -22 5 -3 12 31 16
75 7 90 12 109 27 109 6 0 7 -11 4 -26 -7 -25 20 -104 35 -104 4 0 9 -17 11
-38 2 -30 7 -37 23 -35 28 3 46 -54 34 -105 -5 -20 -8 -50 -8 -67 0 -29 0 -29
14 -11 8 11 15 29 15 40 0 20 0 20 14 0 25 -33 30 -6 8 40 -12 24 -22 58 -22
77 0 19 -13 61 -29 94 -16 33 -36 78 -46 100 -9 22 -28 57 -43 78 -22 33 -25
47 -23 100 2 34 4 82 5 107 1 41 3 45 29 48 15 2 27 9 27 18 0 8 10 14 24 14
13 0 26 6 29 13 2 7 8 8 13 3 5 -5 4 -11 -3 -13 -7 -3 -13 -16 -13 -30 0 -20
4 -24 20 -20 11 3 20 1 20 -4 0 -5 5 -9 11 -9 7 0 8 11 4 30 -4 20 -3 30 6 30
8 0 10 13 4 48 -4 26 -7 62 -7 81 1 39 -22 63 -51 55 -12 -4 -27 4 -42 20 -19
21 -24 23 -29 9 -6 -14 -8 -14 -24 1 -23 20 -36 21 -28 1 3 -8 1 -15 -4 -15
-10 0 -11 9 -15 75 -1 17 -6 44 -10 60 -6 25 -5 28 6 18 26 -25 30 -12 8 23
-18 30 -19 38 -8 45 19 12 25 11 62 -7 35 -18 48 -34 41 -46 -3 -4 0 -16 5
-25 10 -17 11 -16 17 5 3 12 10 22 15 22 12 0 -15 52 -35 69 -9 8 -16 20 -16
28 0 13 4 13 26 -2 38 -25 40 -11 2 24 -29 27 -30 31 -12 31 11 0 26 -6 33
-12 10 -11 12 -10 9 2 -2 10 5 15 20 14 12 0 21 4 19 10 -2 6 -14 10 -26 8
-18 -2 -21 2 -16 17 6 18 4 19 -41 5 -26 -8 -53 -19 -60 -25 -9 -7 -14 -8 -14
-1 0 5 -7 13 -16 16 -14 5 -16 1 -11 -23 4 -17 2 -33 -4 -37 -18 -11 -30 18
-26 62 2 23 0 48 -4 56 -5 9 -10 29 -11 46 -2 30 -4 31 -39 26 -22 -4 -39 -2
-43 5 -4 6 -12 9 -17 5 -6 -3 1 17 15 44 14 28 30 54 36 57 7 4 8 19 5 36 -4
17 -2 29 4 29 5 0 11 20 13 45 6 85 23 52 29 -54 3 -67 10 -106 17 -109 7 -2
12 -10 12 -17 0 -25 35 -85 53 -91 14 -4 16 -9 6 -20 -8 -10 -8 -14 0 -14 11
0 15 12 11 43 -1 16 1 16 19 5 15 -9 19 -19 14 -38 l-6 -25 20 25 c23 27 23
29 -19 118 -32 68 -31 87 5 101 12 5 29 16 36 24 11 14 18 14 57 2 25 -7 46
-9 50 -4 9 14 24 10 24 -6 0 -9 7 -18 15 -21 8 -4 15 -12 15 -20 0 -8 5 -14
10 -14 6 0 10 8 10 17 0 14 4 12 25 -7 14 -13 25 -29 25 -37 0 -7 6 -13 13
-13 6 -1 32 -26 56 -56 34 -43 41 -58 31 -64 -10 -6 -7 -9 11 -12 17 -2 26
-12 33 -38 9 -33 35 -64 45 -54 8 7 -83 178 -101 192 -10 7 -18 19 -18 25 -1
12 -34 57 -42 57 -12 0 -151 140 -146 146 12 11 58 -6 58 -21 0 -17 90 -79 99
-69 3 3 -2 11 -12 18 -20 15 -22 32 -6 42 7 4 20 -4 30 -17 16 -20 19 -21 19
-6 0 10 -7 20 -15 23 -8 4 -15 14 -15 24 0 20 -23 43 -33 33 -4 -3 -7 1 -7 10
0 17 -34 31 -61 25 -8 -2 -13 3 -11 11 2 11 -6 12 -35 8 -33 -5 -43 -2 -74 26
-46 41 -54 62 -30 86 17 17 20 17 35 3 20 -21 30 -10 30 33 l0 35 23 -27 22
-28 1 53 c0 45 3 52 20 52 11 0 20 7 20 15 0 8 6 15 14 15 8 0 18 10 22 22 6
21 8 20 35 -13 16 -19 29 -29 29 -22 0 6 -4 15 -10 18 -15 9 -12 25 5 25 8 0
15 7 15 15 0 21 -51 10 -124 -26 -32 -16 -67 -27 -77 -24 -12 4 -19 -1 -24
-17 -13 -47 -40 -98 -52 -98 -16 0 -16 3 2 47 8 19 15 39 15 44 0 5 -7 6 -15
3 -8 -4 -15 -1 -15 5 0 6 -17 11 -37 12 -37 1 -38 1 -10 11 15 5 24 14 21 19
-3 6 5 7 20 3 28 -7 34 4 14 24 -9 9 -7 12 11 12 12 0 19 4 16 10 -3 6 -1 10
6 10 8 0 8 4 -1 15 -17 21 -6 29 20 15 34 -18 34 -5 1 20 -17 12 -31 25 -31
29 0 13 49 31 86 31 21 0 33 4 29 10 -3 6 -15 10 -26 10 -10 0 -19 3 -19 8 1
12 38 52 49 52 14 0 14 17 1 25 -17 11 -11 25 11 25 15 0 19 4 15 16 -3 9 -6
30 -7 47 0 18 -3 26 -6 18 -9 -23 -60 -69 -95 -86 -18 -8 -44 -24 -58 -35 -21
-16 -22 -21 -11 -29 12 -8 9 -13 -17 -28 -34 -19 -41 -33 -17 -33 9 0 12 -6 8
-16 -4 -11 -13 -14 -32 -9 -38 9 -46 22 -22 34 l21 12 -20 27 c-20 27 -19 62
1 62 5 0 9 7 9 16 0 10 -5 14 -15 10 -13 -5 -14 3 -9 48 5 42 2 61 -12 87 -11
19 -20 36 -21 37 -3 6 -43 -38 -43 -46 0 -10 -33 -42 -44 -42 -4 0 -4 20 0 45
7 48 -13 165 -29 165 -4 0 -6 -4 -2 -9 10 -17 -11 -21 -31 -6 -20 15 -48 20
-40 7z m-214 -120 c0 -13 -39 -32 -55 -26 -24 9 -18 22 13 27 15 2 30 5 35 6
4 0 7 -2 7 -7z m76 -130 c-4 -3 -14 2 -24 12 -16 18 -16 18 6 6 13 -6 21 -14
18 -18z m375 -230 c-28 -4 -40 6 -21 18 9 6 20 4 29 -3 12 -10 11 -13 -8 -15z
m-524 -58 c-3 -3 -12 -4 -19 -1 -8 3 -5 6 6 6 11 1 17 -2 13 -5z m468 -54 c3
-5 1 -10 -4 -10 -6 0 -11 5 -11 10 0 6 2 10 4 10 3 0 8 -4 11 -10z m-15 -44
c0 -17 -24 -38 -33 -29 -15 15 -6 43 13 43 11 0 20 -6 20 -14z m-360 -46 c0
-5 -2 -10 -4 -10 -3 0 -8 5 -11 10 -3 6 -1 10 4 10 6 0 11 -4 11 -10z m285
-60 c-3 -5 -13 -6 -21 -3 -12 4 -13 8 -3 14 15 9 32 2 24 -11z m140 10 c3 -5
-1 -10 -9 -10 -9 0 -16 5 -16 10 0 6 4 10 9 10 6 0 13 -4 16 -10z m-195 -20
c0 -5 -4 -10 -10 -10 -5 0 -10 5 -10 10 0 6 5 10 10 10 6 0 10 -4 10 -10z
m-429 -87 c-8 -15 -10 -15 -11 -2 0 17 10 32 18 25 2 -3 -1 -13 -7 -23z m54
-3 c-16 -16 -31 -28 -33 -25 -9 9 29 55 45 55 13 0 10 -7 -12 -30z m95 0 c5 0
12 5 15 10 7 12 25 4 25 -11 0 -5 -7 -9 -15 -9 -8 0 -24 -5 -35 -12 -27 -17
-36 -3 -19 29 11 20 15 22 17 10 2 -10 7 -17 12 -17z m484 11 c3 -4 3 -11 0
-14 -8 -8 -34 3 -34 14 0 11 27 12 34 0z m-184 -15 c0 -3 -15 -19 -32 -37 -33
-31 -33 -31 -7 -25 23 5 27 1 39 -34 17 -53 2 -72 -30 -38 -12 12 -25 32 -29
42 -7 18 -12 16 -53 -23 -26 -23 -48 -38 -51 -34 -3 5 -8 24 -12 43 l-6 35 78
37 c74 34 103 44 103 34z m-365 -26 c3 -5 -1 -10 -10 -10 -9 0 -13 5 -10 10 3
6 8 10 10 10 2 0 7 -4 10 -10z m565 -21 c0 -4 -7 -6 -15 -3 -8 4 -15 10 -15
15 0 4 7 6 15 3 8 -4 15 -10 15 -15z m-454 -106 c-11 -11 -17 4 -9 23 7 18 8
18 11 1 2 -10 1 -21 -2 -24z m-680 -48 c-23 -17 -36 -19 -36 -6 0 5 8 12 18
14 32 9 37 6 18 -8z m841 -20 c-1 -19 -5 -35 -10 -35 -5 0 -7 -13 -3 -30 3
-19 1 -30 -5 -30 -6 0 -9 -6 -6 -14 3 -8 -1 -20 -9 -26 -12 -11 -14 -1 -14 69
0 65 3 81 15 81 8 0 15 5 15 10 0 6 4 10 9 10 5 0 9 -16 8 -35z m308 15 c-3
-5 -10 -10 -16 -10 -5 0 -9 5 -9 10 0 6 7 10 16 10 8 0 12 -4 9 -10z m-51 -36
c4 -11 2 -12 -14 -1 -11 6 -20 15 -20 19 0 12 28 -3 34 -18z m-581 -29 c-7
-21 -13 -19 -13 6 0 11 4 18 10 14 5 -3 7 -12 3 -20z m597 -55 c0 -5 -2 -10
-4 -10 -3 0 -8 5 -11 10 -3 6 -1 10 4 10 6 0 11 -4 11 -10z m-1165 -40 c3 -5
1 -10 -4 -10 -6 0 -11 5 -11 10 0 6 2 10 4 10 3 0 8 -4 11 -10z m679 -45 c11
-8 16 -15 10 -15 -5 0 -18 7 -28 15 -11 8 -16 15 -10 15 5 0 18 -7 28 -15z
m296 7 c0 -4 14 -7 31 -7 34 0 36 -3 43 -80 2 -22 7 -56 10 -75 6 -30 3 -39
-19 -60 l-27 -25 -31 38 c-18 20 -38 37 -44 37 -19 0 -16 21 4 35 21 15 48 8
34 -9 -6 -7 1 -21 20 -39 24 -24 29 -25 29 -10 -1 10 -7 29 -15 43 -19 33 -18
40 3 40 11 0 7 6 -13 16 -19 10 -42 13 -63 9 -32 -6 -32 -6 -15 14 10 12 28
21 40 21 26 0 32 27 8 36 -17 7 -20 24 -5 24 6 0 10 -3 10 -8z m-794 -141 c-3
-5 1 -12 10 -15 11 -4 12 -10 6 -22 -5 -9 -7 -25 -5 -35 7 -26 -13 -24 -31 3
-20 28 -20 38 0 38 11 0 14 6 9 20 -4 12 -2 20 5 20 6 0 9 -4 6 -9z m1019 -32
c12 -19 -5 -23 -22 -6 -16 16 -16 17 -1 17 9 0 20 -5 23 -11z m-725 -4 c0 -2
-10 -10 -22 -16 -21 -11 -22 -11 -9 4 13 16 31 23 31 12z m479 -46 c30 -30 41
-59 22 -59 -5 0 -18 11 -28 24 -10 13 -29 26 -41 30 -24 8 -29 22 -9 29 21 9
25 8 56 -24z m-292 -5 c-3 -3 -12 -4 -19 -1 -8 3 -5 6 6 6 11 1 17 -2 13 -5z
m-122 -24 c3 -5 1 -10 -4 -10 -6 0 -11 5 -11 10 0 6 2 10 4 10 3 0 8 -4 11
-10z m208 -57 c6 -33 -2 -51 -14 -32 -11 18 -11 59 0 59 5 0 11 -12 14 -27z
m-43 7 c0 -5 -8 -10 -17 -10 -15 0 -16 2 -3 10 19 12 20 12 20 0z m-271 -15
c11 9 27 15 36 12 25 -10 17 -27 -12 -28 -27 0 -28 0 -5 -10 13 -5 20 -13 17
-19 -10 -16 5 -12 38 12 l30 22 -6 -23 c-5 -20 -3 -22 19 -18 13 2 27 0 30 -5
3 -5 13 -3 22 5 29 24 48 26 61 6 6 -11 9 -24 6 -28 -3 -5 4 -7 15 -4 30 8 25
-7 -21 -60 -43 -49 -79 -76 -79 -57 0 5 7 10 15 10 8 0 15 9 15 19 0 10 7 21
15 25 8 3 15 12 15 20 0 9 -25 19 -77 31 -43 9 -85 20 -93 23 -8 3 -39 4 -68
3 -44 -2 -55 1 -72 21 -25 30 -25 38 3 38 12 0 29 5 37 10 11 7 19 5 27 -7 12
-15 14 -15 32 2z m628 3 c4 -7 9 -40 10 -73 l3 -60 -49 -2 c-43 -2 -49 0 -60
23 -13 30 1 66 24 58 9 -4 15 0 15 9 0 11 7 13 23 9 21 -5 21 -4 5 15 -10 11
-18 23 -18 26 0 12 39 7 47 -5z m-347 -43 c20 -37 6 -41 -20 -6 -16 23 -18 31
-7 31 7 0 20 -11 27 -25z m108 -76 c-2 -6 -8 -10 -13 -10 -5 0 -11 4 -13 10
-2 6 4 11 13 11 9 0 15 -5 13 -11z m-548 -18 c0 -10 -24 -21 -46 -21 -20 0
-17 18 4 23 29 8 42 7 42 -2z m50 -1 c0 -5 -5 -10 -11 -10 -5 0 -7 5 -4 10 3
6 8 10 11 10 2 0 4 -4 4 -10z m530 -34 c0 -3 -4 -8 -10 -11 -5 -3 -10 -1 -10
4 0 6 5 11 10 11 6 0 10 -2 10 -4z m440 -83 c9 -27 9 -38 0 -46 -9 -9 -11 -7
-9 8 3 25 -10 57 -21 50 -11 -7 -33 22 -25 34 10 17 41 -9 55 -46z m-133 25
c-3 -8 -6 -5 -6 6 -1 11 2 17 5 13 3 -3 4 -12 1 -19z m-797 -18 c-22 -15 -176
-59 -206 -60 -12 0 -29 49 -20 58 3 2 12 -1 21 -8 12 -10 16 -9 21 4 6 16 34
23 34 9 0 -5 4 -15 10 -23 7 -12 12 -12 29 4 12 11 34 19 50 18 16 0 35 6 42
14 9 11 15 12 23 4 8 -8 7 -14 -4 -20z m570 -6 c12 -31 29 -39 44 -19 12 16
14 16 45 1 18 -10 36 -27 41 -39 6 -16 9 -18 9 -5 1 9 6 20 11 23 19 12 28 -5
21 -37 -5 -21 -3 -44 5 -63 17 -40 18 -105 2 -105 -18 1 -70 79 -62 91 7 12
-74 99 -92 99 -6 0 -17 7 -25 16 -7 9 -30 23 -51 31 -45 18 -42 31 8 30 27 -1
38 -6 44 -23z m-405 6 c3 -5 15 -10 26 -10 24 0 25 -19 2 -26 -10 -3 -26 -10
-36 -15 -10 -5 -22 -7 -26 -4 -10 6 -20 52 -13 60 9 9 41 6 47 -5z m735 -20
c0 -5 -5 -10 -11 -10 -5 0 -7 5 -4 10 3 6 8 10 11 10 2 0 4 -4 4 -10z m-620
-9 c0 -22 -54 -72 -72 -68 -10 3 -20 2 -23 -3 -3 -4 -14 -10 -25 -13 -18 -5
-19 -3 -8 10 7 9 27 22 43 29 17 8 41 22 55 34 29 23 30 23 30 11z m558 -3
c22 -22 14 -48 -13 -48 -15 0 -25 6 -25 14 0 8 -3 21 -6 30 -7 19 26 22 44 4z
m-796 -30 c11 9 17 9 26 0 7 -7 12 -15 12 -19 0 -20 -188 -129 -222 -129 -12
0 -2 32 24 76 17 28 23 32 39 24 14 -8 19 -7 19 1 0 6 7 9 15 5 8 -3 15 0 15
6 0 7 7 3 15 -8 14 -18 14 -17 15 12 0 35 10 50 21 32 6 -9 11 -9 21 0z m68 2
c0 -5 -4 -10 -10 -10 -5 0 -10 5 -10 10 0 6 5 10 10 10 6 0 10 -4 10 -10z
m-250 -84 c-6 -19 -17 -37 -25 -40 -18 -6 -19 -2 -5 22 5 9 15 31 21 47 15 40
24 14 9 -29z m267 28 c-3 -3 -12 -4 -19 -1 -8 3 -5 6 6 6 11 1 17 -2 13 -5z
m77 -59 c-4 -8 -10 -13 -15 -10 -4 3 -6 12 -3 20 4 8 10 13 15 10 4 -3 6 -12
3 -20z m-393 -58 c-8 -8 -11 -7 -11 4 0 20 13 34 18 19 3 -7 -1 -17 -7 -23z
m809 -18 c0 -10 -4 -19 -9 -19 -12 0 -23 29 -15 41 8 14 24 0 24 -22z m-45
-43 c12 -28 19 -60 16 -78 -3 -19 -51 42 -51 65 0 15 -9 32 -21 41 -19 13 -20
14 -2 18 24 6 40 -7 58 -46z m-412 -69 c-4 -21 -13 -37 -18 -35 -10 3 -9 41 2
68 8 20 10 26 13 53 2 14 5 10 7 -13 2 -19 0 -52 -4 -73z m469 48 c3 -14 1
-25 -3 -25 -5 0 -9 4 -9 9 0 5 -3 16 -6 25 -3 9 -2 16 4 16 5 0 12 -11 14 -25z
m-312 2 c0 -7 9 -18 20 -25 11 -7 20 -20 20 -30 0 -14 -3 -14 -18 5 -20 26
-64 22 -60 -6 2 -9 -4 -16 -12 -16 -10 0 -16 12 -18 31 -3 26 0 32 15 30 10 0
17 5 16 12 -2 6 6 12 17 12 11 0 20 -6 20 -13z m370 -46 c-15 -29 -12 -44 6
-37 10 4 14 2 10 -6 -3 -7 -9 -21 -12 -30 -11 -30 -31 -20 -39 19 -6 31 -3 40
15 55 28 23 33 23 20 -1z m-600 -19 c0 -4 -9 -13 -20 -20 -16 -10 -20 -10 -20
2 0 8 6 17 13 19 19 8 27 8 27 -1z m204 -31 c3 -5 0 -14 -8 -20 -10 -9 -15 -8
-19 3 -9 22 15 37 27 17z m326 -7 c0 -8 -4 -12 -10 -9 -5 3 -10 10 -10 16 0 5
5 9 10 9 6 0 10 -7 10 -16z m-264 -116 c-3 -13 -6 -31 -6 -40 0 -10 -4 -18
-10 -18 -5 0 -10 18 -10 40 0 30 4 40 16 40 12 0 15 -6 10 -22z m173 -13 c7 3
11 -2 11 -14 0 -11 5 -23 11 -27 8 -5 6 -10 -5 -16 -9 -5 -16 -16 -16 -24 0
-20 -24 -12 -28 9 -2 11 3 17 15 18 17 1 17 2 0 6 -10 3 -22 16 -28 30 -12 32
0 52 17 29 7 -10 17 -15 23 -11z m-2 -117 c7 17 23 15 23 -3 0 -7 -7 -18 -16
-23 -10 -6 -14 -14 -9 -22 6 -9 9 -9 16 1 8 11 14 9 30 -11 19 -22 22 -23 30
-7 6 10 14 15 19 12 5 -3 12 0 16 6 12 20 24 -13 24 -68 0 -54 10 -72 28 -50
14 17 18 50 8 66 -7 10 -6 12 4 6 16 -10 31 14 24 38 -3 9 -1 17 4 17 9 0 19
-57 26 -149 7 -77 -19 -93 -54 -35 -19 30 -26 34 -50 29 -16 -3 -31 -2 -35 4
-3 6 -13 11 -22 11 -11 0 -14 -6 -9 -26 6 -22 4 -25 -12 -20 -12 4 -25 -1 -36
-13 -16 -18 -16 -19 13 -32 20 -9 27 -17 21 -24 -6 -7 -4 -19 5 -31 8 -10 33
-42 55 -70 22 -29 40 -61 40 -72 0 -11 7 -25 15 -32 8 -7 15 -19 15 -26 0 -8
9 -31 20 -51 18 -34 18 -38 3 -55 -10 -11 -12 -18 -5 -18 7 0 12 5 12 12 0 9
3 9 12 0 10 -10 10 -15 -2 -22 -12 -8 -13 -13 -3 -29 7 -12 9 -23 3 -26 -5 -3
-11 -1 -14 4 -3 5 -15 7 -27 4 -14 -4 -30 4 -51 23 -28 27 -30 27 -24 7 4 -13
4 -23 -1 -23 -5 0 -32 48 -60 108 l-52 107 -3 120 c-1 66 -8 134 -14 150 -7
17 -14 81 -16 143 l-3 114 23 -29 c16 -18 26 -24 29 -15z m-172 -158 c3 -32
-9 -49 -18 -27 -6 16 3 70 11 63 3 -3 6 -19 7 -36z m182 -442 c-3 -7 -5 -2 -5
12 0 14 2 19 5 13 2 -7 2 -19 0 -25z"/>
<path d="M6858 3483 c7 -3 16 -2 19 1 4 3 -2 6 -13 5 -11 0 -14 -3 -6 -6z"/>
<path d="M6795 3460 c-3 -5 3 -10 15 -10 12 0 18 5 15 10 -3 6 -10 10 -15 10
-5 0 -12 -4 -15 -10z"/>
<path d="M7025 3450 c-3 -5 -15 -10 -25 -10 -10 0 -26 -10 -35 -22 -14 -21
-14 -23 0 -26 8 -2 15 -8 15 -13 0 -5 8 -9 18 -8 10 0 12 3 5 6 -22 8 -14 28
17 41 17 8 30 20 30 28 0 16 -16 19 -25 4z"/>
<path d="M6720 3430 c-13 -9 -13 -11 0 -20 8 -5 33 -9 55 -9 34 0 37 2 18 9
-13 5 -23 14 -23 20 0 13 -30 13 -50 0z"/>
<path d="M6900 3414 c0 -8 5 -12 10 -9 6 4 8 11 5 16 -9 14 -15 11 -15 -7z"/>
<path d="M7087 3410 c-3 -13 -17 -22 -37 -26 l-31 -7 28 -18 c15 -11 43 -19
62 -19 32 0 33 1 16 13 -13 11 -15 16 -6 22 7 4 17 3 23 -3 6 -6 18 -1 34 15
14 14 23 28 20 31 -3 3 -15 -5 -26 -18 -17 -20 -20 -20 -26 -6 -3 9 -10 14
-14 11 -4 -3 -10 2 -14 10 -8 21 -23 19 -29 -5z"/>
<path d="M7460 3427 c0 -1 9 -10 20 -20 19 -16 20 -16 20 3 0 13 -7 20 -20 20
-11 0 -20 -1 -20 -3z"/>
<path d="M7234 3365 c-12 -8 -24 -11 -28 -8 -3 3 -6 3 -6 -1 0 -8 26 -36 34
-36 2 0 11 14 20 30 16 33 11 37 -20 15z"/>
<path d="M2697 3273 c-4 -3 -7 -55 -7 -115 l0 -108 68 0 c81 0 112 17 112 60
0 19 -7 34 -20 42 -17 11 -18 14 -4 29 23 25 14 71 -16 86 -26 13 -122 18
-133 6z m118 -63 c0 -22 -5 -25 -42 -28 -42 -3 -43 -2 -43 28 0 30 1 31 43 28
37 -3 42 -6 42 -28z m10 -90 c0 -23 -4 -25 -47 -28 -48 -3 -48 -3 -48 28 0 31
0 31 48 28 43 -3 47 -5 47 -28z"/>
<path d="M2950 3165 l0 -115 75 0 c68 0 75 2 75 20 0 18 -7 20 -55 20 -54 0
-55 0 -55 30 0 29 2 30 45 30 33 0 45 4 45 15 0 11 -12 15 -45 15 -43 0 -45 1
-45 30 0 30 1 30 55 30 48 0 55 2 55 20 0 18 -7 20 -75 20 l-75 0 0 -115z"/>
<path d="M3180 3166 c0 -108 1 -116 20 -116 17 0 19 8 22 73 l3 72 28 -52 c15
-29 33 -53 40 -53 8 0 24 23 37 50 13 28 27 50 32 50 4 0 8 -31 8 -70 0 -63 2
-70 20 -70 19 0 20 7 20 109 0 92 -3 110 -17 115 -21 8 -28 1 -68 -70 l-32
-57 -34 64 c-24 46 -40 65 -56 67 -23 3 -23 2 -23 -112z"/>
<path d="M3933 3273 l-73 -4 0 -109 0 -110 75 0 c43 0 75 4 75 10 0 6 -28 10
-65 10 l-65 0 0 45 0 44 58 4 57 3 -57 2 -58 2 0 45 0 45 65 0 c37 0 65 4 65
10 0 6 -1 9 -2 8 -2 -1 -36 -4 -75 -5z"/>
<path d="M4143 3265 c-96 -41 -72 -198 32 -212 31 -4 46 0 68 17 33 26 29 40
-5 16 -37 -26 -82 -21 -112 15 -36 43 -35 91 3 130 35 34 68 37 105 8 22 -17
26 -18 26 -4 0 9 -15 22 -35 31 -41 17 -42 17 -82 -1z"/>
<path d="M4418 3273 l-68 -4 0 -109 0 -110 75 0 c43 0 75 4 75 10 0 6 -28 10
-65 10 l-65 0 0 45 0 44 58 4 57 3 -57 2 -58 2 0 45 0 45 65 0 c37 0 65 4 65
10 0 6 -3 9 -7 8 -5 -1 -38 -3 -75 -5z"/>
<path d="M4590 3165 c0 -70 4 -115 10 -115 6 0 10 20 10 45 l0 45 55 0 c53 0
57 1 69 32 28 65 -14 108 -105 108 l-39 0 0 -115z m124 73 c21 -30 20 -44 -4
-68 -13 -13 -33 -20 -60 -20 l-40 0 0 55 0 55 44 0 c35 0 48 -5 60 -22z"/>
<path d="M4804 3269 c-3 -5 13 -9 35 -9 l41 0 0 -105 c0 -63 4 -105 10 -105 6
0 10 42 10 105 l0 105 40 0 c22 0 40 4 40 10 0 13 -168 12 -176 -1z"/>
<path d="M5060 3166 c0 -71 4 -116 10 -116 6 0 10 43 10 109 0 63 -4 112 -10
116 -6 4 -10 -35 -10 -109z"/>
<path d="M5160 3270 c0 -26 85 -220 95 -217 10 4 93 193 94 217 2 29 -18 -6
-55 -98 -20 -51 -40 -90 -44 -85 -4 4 -22 46 -40 93 -34 86 -50 116 -50 90z"/>
<path d="M5493 3273 c-36 -7 -73 -59 -73 -103 0 -51 15 -83 50 -103 44 -26 78
-21 116 17 29 29 34 41 34 80 0 73 -58 123 -127 109z m74 -28 c34 -24 47 -76
29 -118 -16 -40 -41 -57 -84 -57 -52 0 -91 68 -72 126 20 59 80 82 127 49z"/>
<path d="M3622 3158 c0 -75 3 -98 7 -68 6 42 8 45 38 48 27 3 35 -3 63 -42 38
-57 61 -62 24 -6 l-27 41 21 22 c27 29 29 78 4 100 -13 12 -37 17 -75 17 l-57
0 2 -112z m125 76 c15 -24 15 -29 2 -53 -12 -22 -22 -26 -67 -29 l-52 -3 0 55
0 56 50 0 c42 0 52 -4 67 -26z"/>
<path d="M7202 3265 c11 -12 98 -23 104 -13 3 4 -10 8 -28 8 -18 0 -44 3 -58
7 -14 3 -22 2 -18 -2z"/>
<path d="M738 3138 c9 -9 15 -9 24 0 9 9 7 12 -12 12 -19 0 -21 -3 -12 -12z"/>
<path d="M1038 3113 c7 -3 16 -2 19 1 4 3 -2 6 -13 5 -11 0 -14 -3 -6 -6z"/>
<path d="M1956 2973 c-3 -3 -3 -10 0 -14 7 -12 34 -11 34 0 0 11 -26 22 -34
14z"/>
<path d="M2010 2965 c7 -8 16 -12 21 -9 13 8 1 24 -18 24 -13 0 -13 -3 -3 -15z"/>
<path d="M2188 2973 c7 -3 16 -2 19 1 4 3 -2 6 -13 5 -11 0 -14 -3 -6 -6z"/>
<path d="M336 2942 c-2 -4 -7 -23 -11 -42 -5 -29 -2 -37 15 -48 29 -18 35 -11
38 47 2 45 0 51 -17 51 -11 0 -22 -3 -25 -8z"/>
<path d="M1930 2920 c-12 -7 -10 -9 7 -7 12 0 19 5 17 9 -6 10 -6 10 -24 -2z"/>
<path d="M1810 2846 c0 -9 5 -16 10 -16 6 0 10 4 10 9 0 6 -4 13 -10 16 -5 3
-10 -1 -10 -9z"/>
<path d="M320 2650 c0 -5 5 -10 10 -10 6 0 10 5 10 10 0 6 -4 10 -10 10 -5 0
-10 -4 -10 -10z"/>
<path d="M320 2600 c0 -5 6 -10 14 -10 8 0 18 5 21 10 3 6 -3 10 -14 10 -12 0
-21 -4 -21 -10z"/>
<path d="M326 2513 c-4 -9 -2 -21 4 -27 7 -7 10 -2 10 17 0 31 -5 34 -14 10z"/>
<path d="M3825 2514 c-12 -13 -19 -14 -28 -5 -13 13 -107 15 -107 2 0 -5 7
-14 15 -21 42 -35 -12 -33 -70 2 -23 14 -49 18 -110 17 -76 -1 -79 -1 -50 -14
17 -8 42 -14 57 -15 22 0 27 -5 30 -27 4 -36 41 -44 58 -14 6 13 21 21 35 21
21 0 25 -5 25 -30 0 -24 4 -30 21 -30 12 0 23 8 26 20 3 11 12 20 19 20 12 0
12 5 -1 30 -9 17 -11 30 -5 30 5 0 12 -11 16 -25 3 -14 10 -25 15 -25 5 0 9
-7 9 -15 0 -8 4 -15 8 -15 9 0 108 28 132 37 8 3 26 7 39 9 27 3 27 3 35 31 6
20 4 23 -18 21 -14 -1 -26 -6 -26 -11 0 -5 -7 -6 -16 -3 -9 3 -25 -5 -41 -20
l-26 -26 7 28 c5 18 3 30 -6 35 -19 12 -24 11 -43 -7z m-15 -60 c0 -8 -4 -14
-10 -14 -5 0 -10 9 -10 21 0 11 5 17 10 14 6 -3 10 -13 10 -21z"/>
<path d="M2040 2513 c0 -4 5 -15 10 -23 8 -13 10 -13 10 2 0 9 -4 20 -10 23
-5 3 -10 3 -10 -2z"/>
<path d="M4030 2505 c0 -19 27 -19 60 0 25 14 24 14 -17 15 -32 0 -43 -4 -43
-15z"/>
<path d="M5266 2462 c-3 -5 14 -17 37 -27 23 -10 54 -29 68 -42 22 -20 27 -22
32 -9 7 17 -31 48 -87 71 -41 17 -43 18 -50 7z"/>
<path d="M1933 2415 c7 -14 16 -25 20 -25 9 0 -9 36 -22 44 -5 4 -4 -5 2 -19z"/>
<path d="M4935 2370 c-19 -7 -18 -8 7 -18 27 -11 30 -19 43 -110 7 -42 34 -70
43 -44 7 21 22 2 22 -28 0 -16 4 -32 10 -35 6 -4 2 -15 -9 -27 -24 -25 -43
-15 -39 23 2 20 -5 36 -24 56 -15 16 -36 58 -48 95 -20 64 -34 87 -47 74 -4
-3 1 -14 10 -24 20 -22 21 -36 5 -61 -11 -18 -13 -16 -30 21 -10 22 -15 44
-12 49 3 5 -1 9 -8 9 -27 0 -314 -73 -327 -84 -7 -5 -28 -9 -47 -7 -19 1 -48
-5 -65 -13 -18 -9 -40 -16 -51 -16 -25 0 -24 -36 2 -50 25 -14 40 -5 41 23 0
13 6 4 14 -23 8 -25 14 -50 12 -55 -1 -6 9 -33 22 -60 14 -28 29 -60 34 -72
13 -29 41 -31 34 -3 -3 11 -1 20 4 20 5 0 23 23 40 50 17 28 34 50 38 50 4 0
23 -14 41 -30 l34 -30 -20 -27 c-20 -26 -20 -28 -2 -65 12 -25 23 -36 31 -31
9 5 9 3 2 -8 -6 -8 -11 -32 -10 -54 0 -30 4 -41 18 -43 16 -3 18 0 12 20 -6
22 -5 22 9 4 9 -11 18 -17 20 -15 9 8 10 74 2 87 -4 7 -1 12 8 12 9 0 16 -3
17 -7 0 -5 2 -19 3 -33 38 -349 40 -621 5 -888 -6 -46 -8 -86 -5 -89 9 -10 24
9 30 37 4 14 13 54 21 90 19 80 22 653 4 708 -11 34 -3 101 10 72 3 -8 15 -28
25 -44 18 -25 21 -26 32 -12 16 22 39 11 65 -30 11 -19 24 -34 27 -34 13 0 30
50 25 70 -4 16 1 21 25 26 29 6 30 7 30 71 0 44 -5 66 -14 70 -7 2 -20 16 -29
29 -14 22 -14 26 0 40 10 10 13 24 9 41 -6 23 -5 24 15 11 11 -7 21 -18 21
-25 0 -7 5 -13 10 -13 11 0 12 170 2 207 -9 28 -104 152 -117 152 -5 0 -19 -4
-30 -9z m-135 -85 c0 -8 -4 -15 -10 -15 -5 0 -10 7 -10 15 0 8 5 15 10 15 6 0
10 -7 10 -15z m-340 -92 c-11 -17 -11 -17 -6 0 3 10 6 24 7 30 0 9 2 9 5 0 3
-7 0 -20 -6 -30z m210 9 c0 -13 -12 -22 -22 -16 -10 6 -1 24 13 24 5 0 9 -4 9
-8z m-38 -42 c-3 -31 -10 -36 -24 -22 -8 8 -8 15 0 25 7 8 8 17 4 22 -4 4 0 6
8 3 9 -3 14 -15 12 -28z m108 -84 c0 -14 4 -27 9 -30 12 -8 21 -45 11 -51 -11
-7 -54 81 -46 94 12 19 26 12 26 -13z m220 -37 c0 -11 -4 -17 -10 -14 -5 3
-10 13 -10 21 0 8 5 14 10 14 6 0 10 -9 10 -21z m-130 -109 c0 -5 -2 -10 -4
-10 -3 0 -8 5 -11 10 -3 6 -1 10 4 10 6 0 11 -4 11 -10z m180 -120 c0 -5 -4
-10 -10 -10 -5 0 -10 5 -10 10 0 6 5 10 10 10 6 0 10 -4 10 -10z"/>
<path d="M5481 2304 c0 -11 3 -14 6 -6 3 7 2 16 -1 19 -3 4 -6 -2 -5 -13z"/>
<path d="M7377 2304 c-8 -8 3 -34 14 -34 5 0 9 9 9 20 0 19 -11 26 -23 14z"/>
<path d="M402 2228 c-18 -18 -14 -28 11 -28 30 0 40 10 26 27 -14 16 -22 16
-37 1z"/>
<path d="M1792 2230 c14 -4 32 -11 40 -16 10 -6 10 -4 -1 9 -7 9 -25 17 -40
16 l-26 -1 27 -8z"/>
<path d="M7310 2225 c0 -8 5 -15 10 -15 6 0 10 7 10 15 0 8 -4 15 -10 15 -5 0
-10 -7 -10 -15z"/>
<path d="M323 2205 c-3 -9 -3 -18 0 -22 10 -10 37 6 37 22 0 20 -29 20 -37 0z"/>
<path d="M4244 2202 c-7 -4 -8 -15 -3 -27 6 -17 8 -17 8 -2 1 21 29 23 37 2 7
-16 54 -21 54 -5 0 11 -52 40 -72 40 -7 0 -18 -4 -24 -8z"/>
<path d="M7300 2175 c0 -15 26 -32 36 -23 2 3 2 13 -2 22 -8 20 -34 21 -34 1z"/>
<path d="M4348 2125 c3 -21 0 -35 -7 -35 -6 0 -11 -11 -11 -25 0 -14 -3 -25
-7 -25 -12 0 -12 -54 0 -68 7 -9 7 -16 1 -20 -6 -4 -8 -29 -6 -56 4 -48 5 -49
18 -25 7 13 13 39 14 57 0 23 4 32 13 29 12 -4 12 -12 1 -78 -5 -28 -2 -38 11
-43 13 -5 15 -2 10 14 -4 14 -2 20 8 20 30 0 40 -28 35 -100 -6 -74 6 -97 16
-32 3 20 9 60 13 87 l8 50 12 -32 c7 -18 14 -33 16 -33 2 0 2 35 1 78 -2 42
-4 80 -4 83 0 4 -9 9 -20 12 -14 3 -20 14 -20 31 0 23 -3 26 -25 20 -15 -4
-25 -2 -25 5 0 6 7 11 15 11 20 0 19 13 -5 41 -17 21 -21 22 -30 9 -9 -12 -10
-10 -5 8 6 21 -8 52 -24 52 -4 0 -5 -16 -3 -35z m17 -105 c3 -5 -1 -10 -9 -10
-9 0 -16 5 -16 10 0 6 4 10 9 10 6 0 13 -4 16 -10z m81 -116 c-10 -38 -36 -30
-36 10 0 25 5 36 18 38 20 4 26 -13 18 -48z"/>
<path d="M3940 2139 c-19 -5 -57 -13 -85 -17 l-50 -7 -13 -60 c-13 -62 -19
-301 -8 -312 3 -4 6 10 6 30 0 20 5 39 11 42 6 4 9 21 8 39 -2 34 9 76 20 76
15 0 33 -50 28 -77 -6 -33 16 -75 27 -48 3 8 3 22 0 30 -4 8 1 17 10 21 15 6
15 8 -1 20 -16 12 -16 15 -3 24 21 14 22 13 48 -23 18 -26 22 -28 22 -12 0 41
-12 65 -32 65 -14 0 -19 6 -16 23 2 15 9 21 23 19 19 -2 19 -2 3 11 -21 17
-23 27 -5 27 6 0 21 -13 31 -29 15 -22 28 -29 52 -29 26 0 31 3 26 17 -3 9
-14 22 -24 29 -14 10 -17 23 -14 50 5 49 -4 102 -18 101 -6 -1 -27 -5 -46 -10z"/>
<path d="M4275 2119 c-22 -17 -42 -36 -44 -42 -2 -7 -12 -19 -22 -27 -19 -16
-23 -39 -21 -102 2 -41 22 -54 22 -15 0 25 28 57 49 57 6 0 11 6 9 13 -3 13
49 108 65 118 10 7 1 30 -11 28 -4 0 -25 -14 -47 -30z"/>
<path d="M3704 2063 c-8 -21 -20 -48 -26 -60 -6 -12 -7 -30 -3 -40 6 -14 11
-9 21 27 8 24 21 48 29 53 17 9 21 57 4 57 -5 0 -17 -17 -25 -37z"/>
<path d="M4020 2075 c0 -24 25 -83 39 -95 4 -3 12 -18 19 -34 27 -60 19 -17
-11 67 -33 88 -47 107 -47 62z"/>
<path d="M3465 2059 c-4 -12 -2 -26 4 -32 8 -8 11 -2 11 21 0 37 -6 41 -15 11z"/>
<path d="M3532 2031 c-39 -61 -41 -76 -4 -35 43 47 65 84 50 84 -8 0 -28 -22
-46 -49z"/>
<path d="M7335 1960 c-3 -5 -1 -10 4 -10 6 0 11 5 11 10 0 6 -2 10 -4 10 -3 0
-8 -4 -11 -10z"/>
<path d="M6990 1930 c0 -5 5 -10 10 -10 6 0 10 5 10 10 0 6 -4 10 -10 10 -5 0
-10 -4 -10 -10z"/>
<path d="M3477 1923 c-4 -3 -7 -20 -6 -37 l1 -31 9 34 c10 33 8 47 -4 34z"/>
<path d="M4001 1908 c-10 -16 -10 -23 -2 -26 6 -2 11 -25 11 -53 0 -31 4 -48
10 -44 6 4 7 24 4 48 -4 23 -6 54 -6 70 1 33 1 33 -17 5z"/>
<path d="M7145 1900 c7 -11 121 -7 132 4 4 3 -26 6 -66 6 -47 0 -70 -4 -66
-10z"/>
<path d="M7407 1899 c11 -11 253 -19 253 -8 0 5 -37 10 -82 11 -46 0 -105 2
-131 3 -27 2 -45 -1 -40 -6z"/>
<path d="M3616 1884 c-3 -9 -6 -30 -5 -47 0 -30 1 -30 10 -9 5 13 13 20 19 17
5 -3 10 0 10 9 0 21 -11 46 -20 46 -4 0 -11 -7 -14 -16z"/>
<path d="M5885 1890 c4 -6 11 -8 16 -5 14 9 11 15 -7 15 -8 0 -12 -5 -9 -10z"/>
<path d="M6992 1838 c3 -7 13 -15 24 -17 10 -2 25 -8 33 -14 7 -6 26 -10 41
-9 20 2 31 -4 43 -22 22 -33 118 -48 146 -22 10 9 21 13 24 9 4 -3 7 1 7 9 0
20 -40 35 -115 43 -33 4 -89 13 -125 21 -80 17 -83 17 -78 2z"/>
<path d="M4140 1835 c0 -5 5 -17 10 -25 5 -8 10 -10 10 -5 0 6 -5 17 -10 25
-5 8 -10 11 -10 5z"/>
<path d="M5890 1833 c-8 -2 -21 -6 -27 -8 -8 -3 -10 -12 -5 -24 10 -29 24 -26
38 8 7 17 12 31 11 30 -1 0 -9 -3 -17 -6z"/>
<path d="M4347 1809 c-7 -27 -1 -37 14 -22 7 7 8 17 2 28 -9 15 -11 15 -16 -6z"/>
<path d="M7430 1801 c0 -12 29 -23 41 -15 18 10 9 24 -16 24 -14 0 -25 -4 -25
-9z"/>
<path d="M6945 1790 c-3 -5 -1 -10 4 -10 6 0 11 5 11 10 0 6 -2 10 -4 10 -3 0
-8 -4 -11 -10z"/>
<path d="M7360 1766 c0 -20 5 -36 10 -36 6 0 10 9 10 20 0 13 7 20 20 20 11 0
20 5 20 10 0 6 -6 10 -14 10 -8 0 -21 3 -30 6 -13 5 -16 -1 -16 -30z"/>
<path d="M4690 1780 c0 -5 5 -10 10 -10 6 0 10 5 10 10 0 6 -4 10 -10 10 -5 0
-10 -4 -10 -10z"/>
<path d="M6912 1729 c22 -29 42 -34 86 -23 32 9 27 24 -8 24 -17 0 -46 6 -65
14 l-35 15 22 -30z"/>
<path d="M7287 1743 c-14 -13 -6 -23 18 -23 28 0 34 15 9 24 -19 7 -19 7 -27
-1z"/>
<path d="M4690 1710 c-20 -15 -23 -21 -12 -32 10 -10 15 -9 28 4 9 8 14 23 12
31 -3 14 -6 14 -28 -3z"/>
<path d="M7624 1719 c-8 -14 11 -33 25 -25 6 4 11 11 11 16 0 13 -29 20 -36 9z"/>
<path d="M3870 1598 c-1 -68 -5 -169 -9 -225 -5 -56 -6 -117 -2 -135 6 -28 8
-21 14 42 4 41 11 118 17 170 5 52 10 134 10 183 0 71 -3 87 -15 87 -12 0 -15
-20 -15 -122z"/>
<path d="M7419 1716 c-3 -3 -40 -12 -84 -21 -78 -17 -217 -16 -287 1 -22 5
-28 3 -28 -10 0 -17 -20 -21 -36 -7 -5 5 -27 6 -49 2 -36 -6 -27 -9 75 -24 63
-9 144 -17 180 -18 81 0 110 -6 110 -22 0 -17 -63 -44 -68 -29 -4 14 -38 16
-47 3 -3 -5 4 -16 16 -24 17 -13 19 -19 10 -36 -7 -12 -21 -21 -31 -21 -25 0
-26 -16 -2 -29 14 -9 11 -10 -16 -11 -30 0 -32 2 -22 20 13 24 -2 27 -43 8
-18 -9 -27 -21 -27 -36 0 -15 -7 -26 -19 -29 -11 -3 -21 -13 -24 -23 -3 -12
-11 -17 -23 -14 -24 6 -48 -38 -31 -55 8 -8 6 -11 -6 -11 -10 0 -14 -5 -11
-15 8 -20 21 -19 46 5 25 23 34 19 53 -27 19 -45 19 -45 -7 -41 -13 2 -22 9
-20 16 1 6 -5 12 -13 12 -22 0 -18 -26 6 -49 12 -11 19 -25 17 -32 -3 -8 -15
-1 -33 19 -15 18 -35 32 -43 32 -8 0 -20 7 -27 16 -6 9 -18 15 -25 12 -9 -3
-8 -9 6 -23 19 -18 18 -18 -6 -11 -14 4 -32 8 -40 8 -8 0 -20 5 -27 10 -14 11
-36 1 -28 -13 4 -5 15 -9 26 -9 10 0 19 -4 19 -10 0 -5 9 -10 20 -10 11 0 20
-4 20 -10 0 -14 -23 -12 -39 3 -11 10 -14 10 -18 0 -7 -20 -34 -15 -60 9 -35
33 -38 15 -3 -21 31 -30 33 -51 4 -51 -8 0 -14 6 -14 14 0 7 -16 26 -35 40
-19 15 -35 22 -35 17 0 -6 5 -11 10 -11 15 0 12 -19 -4 -36 -10 -9 -17 -11
-21 -3 -4 6 -19 7 -36 4 -23 -5 -29 -3 -29 10 0 13 -4 12 -22 -5 -13 -12 -31
-19 -40 -16 -10 2 -18 0 -18 -5 0 -5 8 -9 18 -9 10 0 22 -3 26 -7 4 -5 17 -8
29 -8 11 0 22 -6 24 -12 3 -7 0 -13 -6 -13 -6 0 -11 4 -11 9 0 5 -19 0 -41
-11 -34 -16 -47 -18 -66 -9 -14 6 -29 9 -34 6 -5 -4 -5 3 0 17 5 13 14 22 20
21 12 -3 14 8 5 31 -8 22 -40 20 -63 -3 -14 -14 -21 -16 -25 -8 -2 7 -5 1 -5
-11 -1 -29 -37 -82 -56 -82 -17 0 -28 34 -20 59 5 16 2 18 -15 14 -11 -3 -20
-13 -20 -23 0 -10 -7 -21 -16 -24 -8 -3 -13 -10 -10 -15 3 -5 -3 -7 -15 -4
-15 4 -22 0 -26 -16 -3 -11 -12 -21 -19 -21 -8 0 -14 -8 -14 -17 0 -15 -2 -15
-9 -4 -8 12 -12 13 -26 1 -10 -9 -19 -10 -26 -3 -7 7 -5 14 6 23 22 18 20 43
-4 35 -11 -3 -22 -1 -26 5 -10 16 -25 12 -36 -12 -22 -50 -37 -70 -43 -59 -4
6 -17 11 -29 11 -12 0 -33 13 -47 30 -14 17 -32 32 -40 34 -77 15 -90 20 -96
38 -8 26 -25 18 -38 -18 -8 -20 -17 -29 -28 -26 -11 2 -18 -3 -18 -12 0 -9 7
-16 15 -16 13 0 13 -3 3 -20 -8 -13 -20 -19 -30 -16 -13 3 -18 -2 -18 -15 0
-10 -4 -19 -10 -19 -5 0 -10 -4 -10 -10 0 -5 9 -10 19 -10 19 0 38 -17 29 -25
-2 -2 -20 0 -41 5 -21 4 -50 4 -65 0 -15 -5 -21 -9 -14 -9 6 -1 12 -8 12 -17
0 -11 -6 -15 -20 -11 -10 3 -21 0 -22 -5 -6 -18 -49 10 -100 64 -34 36 -53 48
-65 44 -14 -6 -12 -10 13 -25 47 -29 89 -80 90 -109 1 -16 17 -43 39 -67 31
-32 35 -41 21 -43 -9 -2 -31 1 -48 7 -40 14 -59 2 -24 -16 15 -8 26 -22 26
-34 0 -11 7 -34 16 -50 15 -30 15 -31 -4 -24 -17 5 -19 2 -15 -15 6 -23 -12
-28 -21 -5 -3 9 -18 15 -36 15 -24 0 -30 -4 -30 -21 0 -20 -4 -21 -47 -15 -27
3 -49 11 -51 16 -5 13 -32 13 -32 1 0 -6 5 -13 10 -16 12 -8 13 -45 1 -45 -17
0 -29 26 -29 62 0 28 7 43 29 62 17 16 35 23 45 19 14 -5 15 -3 5 15 -6 11
-23 30 -38 42 -27 21 -28 22 -8 36 16 12 17 16 6 23 -8 5 -11 16 -8 24 3 8 1
19 -5 25 -6 6 -6 12 1 16 6 4 11 15 11 25 0 10 7 24 15 31 8 7 15 27 15 45 0
17 11 54 25 81 28 56 34 114 10 114 -18 0 -19 12 -2 29 10 11 7 12 -13 6 -14
-4 -25 -8 -25 -9 0 -8 -43 -82 -57 -98 -10 -12 -18 -29 -18 -39 0 -10 -4 -21
-10 -24 -5 -3 -10 -17 -10 -30 0 -13 -4 -27 -10 -30 -5 -3 -10 -15 -10 -26 0
-10 -7 -19 -15 -19 -10 0 -15 10 -15 34 0 19 -5 36 -12 38 -19 7 -7 136 18
201 4 11 1 17 -8 17 -9 0 -23 -25 -36 -67 -12 -38 -26 -81 -31 -98 l-9 -30 -1
37 c-1 20 -4 45 -8 55 -6 14 -9 10 -13 -17 l-5 -35 -15 48 c-14 47 -24 58 -33
35 -3 -9 -13 -5 -31 11 -34 32 -40 24 -21 -29 17 -48 12 -64 -9 -34 -36 50
-43 56 -60 53 -16 -4 -14 -9 13 -39 36 -41 40 -70 11 -70 -11 0 -20 -4 -20
-10 0 -5 5 -10 11 -10 5 0 7 -5 3 -11 -4 -8 -9 -8 -13 -1 -10 17 -81 -10 -81
-30 0 -10 -7 -18 -15 -18 -13 0 -14 -4 -5 -20 6 -11 19 -20 28 -20 22 0 102
-75 102 -96 0 -8 -5 -12 -10 -9 -12 7 -80 -32 -80 -46 0 -12 12 -11 44 1 38
14 44 -8 10 -36 -16 -13 -35 -23 -41 -24 -7 0 -13 -4 -13 -9 0 -15 23 -26 48
-22 34 4 26 -18 -13 -35 -39 -16 -55 -12 -56 14 0 15 -1 14 -8 -2 -6 -17 -10
-16 -38 13 -17 17 -34 31 -37 31 -13 0 -5 -24 12 -36 16 -12 15 -13 -3 -8 -18
5 -23 -2 -32 -43 -7 -26 -12 -67 -11 -89 0 -25 -6 -51 -17 -65 l-17 -24 7 25
c4 14 8 52 10 85 2 33 7 95 10 138 7 76 6 79 -20 107 -17 18 -23 30 -15 35 12
7 -38 52 -53 47 -4 -1 -18 4 -30 13 -12 8 -31 15 -42 15 -19 -1 -19 -2 4 -20
13 -11 33 -20 45 -20 28 0 46 -18 46 -47 0 -13 6 -26 14 -29 18 -7 26 -38 15
-55 -5 -8 -2 -20 7 -30 21 -23 9 -69 -18 -69 -15 0 -18 -5 -13 -19 3 -11 0
-23 -7 -27 -6 -4 -14 -2 -16 4 -6 19 -22 14 -22 -8 0 -12 5 -17 13 -14 8 3 19
-2 26 -10 11 -13 10 -18 -2 -31 -23 -22 -30 -19 -50 25 -22 48 -39 50 -69 10
-21 -29 -23 -30 -30 -10 -9 26 -28 26 -35 0 -6 -23 -18 -26 -27 -7 -4 6 -4 -5
-2 -25 6 -51 -8 -48 -35 7 -25 49 -49 59 -49 20 0 -14 5 -25 10 -25 16 0 12
-27 -5 -34 -21 -8 -19 -39 5 -54 25 -15 26 -32 3 -32 -16 -1 -17 -2 -2 -13 9
-7 17 -24 17 -38 -1 -22 -4 -25 -27 -21 -24 5 -25 4 -11 -14 8 -10 16 -21 17
-23 7 -10 216 -11 229 0 9 8 23 8 46 1 27 -9 94 -10 118 -3 3 0 5 14 6 30 1
24 -4 31 -24 36 -19 5 -22 9 -13 18 9 9 16 9 31 -1 11 -6 41 -12 67 -13 27 0
73 -4 103 -9 30 -5 109 -16 175 -25 66 -9 140 -21 164 -26 24 -5 46 -7 49 -4
3 2 11 0 19 -6 10 -9 18 -8 33 6 17 15 20 16 25 3 8 -20 154 -23 161 -3 3 7
15 15 26 19 17 4 19 8 10 19 -10 12 -8 13 13 10 13 -3 30 -11 36 -19 6 -8 20
-14 30 -14 10 0 21 -5 24 -11 4 -5 39 -10 78 -10 40 1 146 -2 236 -5 l164 -7
18 24 c14 18 19 20 19 8 0 -10 11 -19 27 -22 41 -8 49 3 16 24 -44 30 1 24 53
-6 39 -23 44 -24 58 -9 9 9 16 11 16 4 0 -7 18 -10 48 -9 27 1 54 -1 60 -5 7
-4 27 4 46 19 28 21 43 25 84 23 44 -3 51 -6 49 -23 -2 -19 4 -20 173 -19 96
1 182 2 190 3 8 1 30 -1 49 -4 19 -3 40 0 48 6 9 8 17 8 26 0 18 -15 108 -10
114 6 6 15 43 18 43 4 0 -5 17 -11 38 -14 29 -3 41 0 54 17 15 18 18 18 18 4
0 -23 20 -27 125 -25 l90 2 3 33 c4 41 -14 68 -34 51 -11 -9 -14 -9 -14 0 0 6
11 16 25 21 27 10 33 25 13 33 -10 4 -10 8 0 15 21 14 10 45 -18 53 l-25 7 28
1 27 1 0 225 c-1 204 -3 225 -18 225 -16 1 -16 2 1 14 14 11 17 29 17 100 0
51 -4 86 -10 86 -5 0 -10 7 -10 15 0 8 4 15 10 15 6 0 10 77 9 211 0 161 -3
208 -12 201 -22 -18 -88 -24 -104 -10 -13 10 -17 10 -20 1 -3 -7 -20 -13 -38
-13 -34 0 -49 12 -50 40 0 8 -16 18 -40 23 -66 14 -69 16 -56 31 6 7 34 16 61
20 28 4 50 11 50 16 0 10 -23 14 -31 6z m189 -158 c-2 -19 -11 -24 -43 -28
l-40 -5 24 -17 c26 -18 21 -39 -7 -31 -14 3 -20 -5 -27 -39 l-10 -43 -63 -1
c-43 0 -67 -5 -72 -15 -14 -22 -21 -4 -10 25 5 15 15 24 20 21 14 -9 70 17 70
32 0 6 -10 15 -22 19 -28 8 -58 33 -58 48 0 6 4 5 9 -3 6 -10 13 -11 29 -2 33
18 49 13 61 -19 5 -16 6 -30 2 -30 -5 0 -8 -11 -8 -24 0 -18 4 -22 19 -18 12
3 17 10 13 22 -3 10 -1 21 5 25 6 4 9 13 6 21 -3 7 -1 16 5 20 6 4 4 13 -7 25
-17 18 -16 19 29 19 25 0 49 5 52 10 11 18 26 10 23 -12z m-238 -76 c0 -4 -4
-13 -9 -21 -8 -12 -12 -12 -25 -2 -21 17 -20 29 2 34 19 4 32 0 32 -11z m-115
-12 c-3 -5 -10 -10 -16 -10 -5 0 -9 5 -9 10 0 6 7 10 16 10 8 0 12 -4 9 -10z
m10 -50 c3 -5 1 -10 -4 -10 -6 0 -11 5 -11 10 0 6 2 10 4 10 3 0 8 -4 11 -10z
m-7 -32 c20 -20 14 -25 -28 -25 -26 0 -39 4 -37 11 2 6 11 10 21 8 9 -2 16 2
16 8 0 14 13 13 28 -2z m187 -18 c-3 -5 -10 -10 -16 -10 -5 0 -9 5 -9 10 0 6
7 10 16 10 8 0 12 -4 9 -10z m-125 -25 c-7 -8 -16 -15 -20 -15 -4 0 -10 7 -14
15 -4 11 2 15 21 15 21 0 24 -2 13 -15z m-24 -70 c22 -22 6 -40 -17 -19 -10 9
-16 21 -13 25 7 12 13 11 30 -6z m94 -21 c0 -9 -5 -14 -12 -12 -18 6 -21 28
-4 28 9 0 16 -7 16 -16z m107 -6 c-3 -8 -6 -5 -6 6 -1 11 2 17 5 13 3 -3 4
-12 1 -19z m-381 -43 c-2 -7 1 -18 7 -24 6 -6 8 -13 5 -16 -3 -3 -17 6 -31 21
-21 20 -24 29 -14 39 14 15 41 -1 33 -20z m362 -13 c3 -9 -4 -11 -22 -6 -20 5
-26 2 -26 -10 0 -9 -8 -16 -19 -16 -10 0 -25 -10 -33 -22 -9 -14 -20 -19 -31
-15 -24 9 -21 37 3 37 11 0 20 6 20 13 0 35 97 52 108 19z m150 -14 c-6 -18
-28 -21 -28 -4 0 9 7 16 16 16 9 0 14 -5 12 -12z m-108 -8 c0 -5 -4 -10 -10
-10 -5 0 -10 5 -10 10 0 6 5 10 10 10 6 0 10 -4 10 -10z m40 -20 c0 -5 -4 -10
-9 -10 -6 0 -13 5 -16 10 -3 6 1 10 9 10 9 0 16 -4 16 -10z m-512 -22 c-3 -7
-11 -13 -18 -13 -7 0 -15 6 -17 13 -3 7 4 12 17 12 13 0 20 -5 18 -12z m592
-8 c0 -5 -2 -10 -4 -10 -3 0 -8 5 -11 10 -3 6 -1 10 4 10 6 0 11 -4 11 -10z
m-111 -9 c8 -5 11 -16 6 -30 -6 -19 -8 -19 -21 -6 -9 8 -20 15 -25 15 -5 0 -9
7 -9 15 0 16 27 20 49 6z m-374 -11 c3 -6 -1 -7 -9 -4 -18 7 -21 14 -7 14 6 0
13 -4 16 -10z m-215 -4 c0 -3 -4 -8 -10 -11 -5 -3 -10 -1 -10 4 0 6 5 11 10
11 6 0 10 -2 10 -4z m650 -47 c0 -16 -17 -10 -24 9 -3 9 -9 24 -12 32 -3 8 4
4 15 -9 12 -13 21 -27 21 -32z m50 36 c0 -8 -4 -15 -9 -15 -13 0 -22 16 -14
24 11 11 23 6 23 -9z m-630 -5 c0 -5 -4 -10 -10 -10 -5 0 -10 5 -10 10 0 6 5
10 10 10 6 0 10 -4 10 -10z m-575 -10 c3 -5 1 -10 -4 -10 -6 0 -11 5 -11 10 0
6 2 10 4 10 3 0 8 -4 11 -10z m505 -74 c0 -6 -5 -3 -11 7 -5 9 -15 17 -22 17
-23 1 -50 29 -43 45 5 13 12 10 41 -21 19 -20 35 -42 35 -48z m-655 55 c3 -5
1 -12 -5 -16 -5 -3 -10 1 -10 9 0 18 6 21 15 7z m805 -10 c0 -12 -20 -25 -27
-18 -7 7 6 27 18 27 5 0 9 -4 9 -9z m-305 -10 c7 -12 -12 -24 -25 -16 -11 7
-4 25 10 25 5 0 11 -4 15 -9z m360 -11 c3 -5 -1 -10 -10 -10 -9 0 -13 5 -10
10 3 6 8 10 10 10 2 0 7 -4 10 -10z m323 -28 c2 -7 -2 -10 -12 -6 -9 3 -16 11
-16 16 0 13 23 5 28 -10z m-1208 -18 c-9 -24 -8 -26 10 -21 13 3 20 0 20 -8 0
-7 3 -20 6 -28 10 -27 -34 -32 -54 -7 -15 19 -16 28 -8 56 6 19 16 34 23 34 9
0 10 -7 3 -26z m310 16 c0 -5 -7 -7 -15 -4 -8 4 -15 8 -15 10 0 2 7 4 15 4 8
0 15 -4 15 -10z m190 -6 c0 -2 -7 -4 -15 -4 -8 0 -15 4 -15 10 0 5 7 7 15 4 8
-4 15 -8 15 -10z m-980 -4 c0 -5 -2 -10 -4 -10 -3 0 -8 5 -11 10 -3 6 -1 10 4
10 6 0 11 -4 11 -10z m1528 -21 c-16 -10 -33 5 -23 21 5 8 11 8 21 -1 12 -10
12 -14 2 -20z m262 15 c0 -9 -7 -14 -17 -12 -25 5 -28 28 -4 28 12 0 21 -6 21
-16z m-2573 -16 c-3 -8 -6 -5 -6 6 -1 11 2 17 5 13 3 -3 4 -12 1 -19z m1053 0
c0 -16 -3 -19 -11 -11 -6 6 -8 16 -5 22 11 17 16 13 16 -11z m120 1 c0 -6 -4
-7 -10 -4 -5 3 -10 11 -10 16 0 6 5 7 10 4 6 -3 10 -11 10 -16z m995 1 c-3 -5
-12 -10 -20 -10 -7 0 -21 -7 -30 -16 -16 -17 -51 -12 -40 6 6 9 57 27 83 29 7
1 10 -3 7 -9z m-2135 -10 c0 -5 -4 -10 -10 -10 -5 0 -10 5 -10 10 0 6 5 10 10
10 6 0 10 -4 10 -10z m2421 -15 c0 -5 -12 -11 -26 -13 -18 -2 -25 1 -25 13 0
12 7 15 25 13 14 -2 26 -7 26 -13z m79 -1 c0 -9 -5 -14 -12 -12 -18 6 -21 28
-4 28 9 0 16 -7 16 -16z m-2340 -3 c0 -6 -4 -13 -10 -16 -5 -3 -10 1 -10 9 0
9 5 16 10 16 6 0 10 -4 10 -9z m2135 -1 c-3 -6 3 -22 14 -36 23 -29 27 -44 11
-44 -6 0 -16 11 -22 25 -9 20 -18 25 -50 25 -25 0 -37 4 -33 10 4 6 15 8 25 5
11 -3 20 0 24 10 3 8 13 15 21 15 9 0 13 -5 10 -10z m-261 -23 c11 -8 20 -30
22 -52 3 -29 1 -36 -8 -27 -7 7 -23 12 -37 12 -23 0 -24 1 -6 20 10 11 13 20
7 20 -7 0 -12 9 -12 20 0 23 9 25 34 7z m434 -20 c4 -21 -24 -13 -32 9 -4 11
-1 14 11 12 10 -2 19 -11 21 -21z m-1818 -34 c0 -37 -24 -22 -28 17 -3 30 -2
32 12 21 9 -8 16 -25 16 -38z m1510 31 c0 -8 -4 -12 -10 -9 -5 3 -10 10 -10
16 0 5 5 9 10 9 6 0 10 -7 10 -16z m-970 -4 c0 -5 -4 -10 -10 -10 -5 0 -10 5
-10 10 0 6 5 10 10 10 6 0 10 -4 10 -10z m163 1 c17 -6 16 -8 -7 -21 -29 -15
-42 -9 -33 15 7 16 13 17 40 6z m570 -8 c-13 -2 -23 -11 -23 -19 0 -8 -7 -14
-15 -14 -8 0 -15 4 -15 8 0 17 25 32 50 31 23 -2 23 -2 3 -6z m-892 -16 c-1
-12 -15 -9 -19 4 -3 6 1 10 8 8 6 -3 11 -8 11 -12z m619 3 c0 -5 -5 -10 -11
-10 -5 0 -7 5 -4 10 3 6 8 10 11 10 2 0 4 -4 4 -10z m512 -35 c-11 -21 -25 -4
-16 20 4 10 10 13 16 7 7 -7 7 -16 0 -27z m103 25 c3 -5 -3 -10 -15 -10 -12 0
-18 5 -15 10 3 6 10 10 15 10 5 0 12 -4 15 -10z m-678 -6 c-3 -3 -12 -4 -19
-1 -8 3 -5 6 6 6 11 1 17 -2 13 -5z m-317 -46 c0 -12 -8 -10 -35 8 -36 23 -31
39 5 17 17 -9 30 -21 30 -25z m1160 32 c0 -5 -2 -10 -4 -10 -3 0 -8 5 -11 10
-3 6 -1 10 4 10 6 0 11 -4 11 -10z m-400 -28 c0 -13 -12 -22 -22 -16 -10 6 -1
24 13 24 5 0 9 -4 9 -8z m-1400 -41 c0 -8 -1 -12 -3 -10 -1 2 -11 15 -22 28
l-20 24 23 -14 c12 -8 22 -20 22 -28z m1680 35 c0 -3 -4 -8 -10 -11 -5 -3 -10
-1 -10 4 0 6 5 11 10 11 6 0 10 -2 10 -4z m-702 -23 c16 -16 16 -16 -1 -10
-10 4 -25 7 -33 7 -8 0 -14 5 -14 10 0 16 30 12 48 -7z m172 7 c0 -5 -2 -10
-4 -10 -3 0 -8 5 -11 10 -3 6 -1 10 4 10 6 0 11 -4 11 -10z m187 -6 c6 -17
-71 -54 -88 -43 -11 7 -9 9 9 9 15 0 22 6 22 18 0 10 3 22 7 26 10 10 46 3 50
-10z m313 -4 c0 -5 -5 -10 -11 -10 -5 0 -7 5 -4 10 3 6 8 10 11 10 2 0 4 -4 4
-10z m90 -31 c0 -23 -23 -25 -40 -4 -10 12 -10 18 0 30 16 19 40 3 40 -26z
m-2070 11 c0 -5 -5 -10 -11 -10 -5 0 -7 5 -4 10 3 6 8 10 11 10 2 0 4 -4 4
-10z m920 0 c0 -5 -2 -10 -4 -10 -3 0 -8 5 -11 10 -3 6 -1 10 4 10 6 0 11 -4
11 -10z m260 0 c0 -5 -5 -10 -11 -10 -5 0 -7 5 -4 10 3 6 8 10 11 10 2 0 4 -4
4 -10z m530 -25 c17 -20 -9 -21 -36 0 -19 14 -19 14 2 15 12 0 27 -7 34 -15z
m193 -9 c15 -11 24 -36 13 -36 -20 0 -66 25 -66 36 0 18 29 18 53 0z m-1646
-29 c13 -8 9 -27 -5 -27 -10 0 -31 48 -24 55 4 3 8 0 11 -7 2 -7 10 -17 18
-21z m1386 3 c3 -11 1 -20 -4 -20 -5 0 -9 4 -9 9 0 5 -3 17 -7 27 -4 11 -3 15
4 11 6 -4 13 -16 16 -27z m457 11 c0 -4 11 -6 24 -4 27 6 45 -15 25 -28 -26
-17 -62 -6 -64 19 -1 12 2 22 7 22 4 0 8 -4 8 -9z m-550 -19 c0 -13 -12 -22
-22 -16 -10 6 -1 24 13 24 5 0 9 -4 9 -8z m55 -2 c3 -5 -1 -10 -10 -10 -9 0
-13 5 -10 10 3 6 8 10 10 10 2 0 7 -4 10 -10z m255 -16 c0 -8 -7 -14 -15 -14
-15 0 -21 21 -9 33 10 9 24 -2 24 -19z m-1095 6 c-3 -5 -10 -10 -16 -10 -5 0
-9 5 -9 10 0 6 7 10 16 10 8 0 12 -4 9 -10z m403 -2 c-7 -20 -48 -23 -48 -4 0
11 9 16 26 16 16 0 24 -5 22 -12z m752 -8 c0 -5 -4 -10 -10 -10 -5 0 -10 5
-10 10 0 6 5 10 10 10 6 0 10 -4 10 -10z m111 -13 c-13 -13 -26 -3 -16 12 3 6
11 8 17 5 6 -4 6 -10 -1 -17z m-1311 3 c0 -5 -4 -10 -10 -10 -5 0 -10 5 -10
10 0 6 5 10 10 10 6 0 10 -4 10 -10z m820 -6 c0 -2 -7 -4 -15 -4 -8 0 -15 4
-15 10 0 5 7 7 15 4 8 -4 15 -8 15 -10z m230 -4 c0 -11 5 -20 10 -20 6 0 10
-7 10 -15 0 -8 -4 -15 -10 -15 -14 0 -43 48 -35 60 10 17 25 11 25 -10z m-710
-10 c0 -5 -4 -10 -10 -10 -5 0 -10 5 -10 10 0 6 5 10 10 10 6 0 10 -4 10 -10z
m-1438 -12 c-7 -7 -12 -22 -12 -35 0 -31 -28 -30 -40 3 -13 34 -14 32 18 37
15 2 31 5 37 6 5 0 4 -4 -3 -11z m641 -33 c-38 -29 -46 -8 -11 27 21 21 23 21
26 5 2 -10 -5 -25 -15 -32z m409 28 c19 -17 24 -33 9 -33 -12 0 -41 29 -41 41
0 14 11 11 32 -8z m508 7 c0 -5 -2 -10 -4 -10 -3 0 -8 5 -11 10 -3 6 -1 10 4
10 6 0 11 -4 11 -10z m428 -1 c-2 -6 -8 -10 -13 -10 -5 0 -11 4 -13 10 -2 6 4
11 13 11 9 0 15 -5 13 -11z m90 -11 c-6 -18 -28 -21 -28 -4 0 9 7 16 16 16 9
0 14 -5 12 -12z m-657 -21 c-1 -12 -15 -9 -19 4 -3 6 1 10 8 8 6 -3 11 -8 11
-12z m479 3 c0 -5 -2 -10 -4 -10 -3 0 -8 5 -11 10 -3 6 -1 10 4 10 6 0 11 -4
11 -10z m420 0 c0 -5 -2 -10 -4 -10 -3 0 -8 5 -11 10 -3 6 -1 10 4 10 6 0 11
-4 11 -10z m180 -11 c0 -14 -16 -11 -29 5 -10 12 -8 13 8 9 12 -3 21 -9 21
-14z m200 17 c0 -3 -4 -8 -10 -11 -5 -3 -10 -1 -10 4 0 6 5 11 10 11 6 0 10
-2 10 -4z m-1140 -70 c0 -15 -3 -15 -30 -1 -32 16 -38 33 -19 52 9 9 17 6 30
-12 11 -13 19 -30 19 -39z m260 34 c0 -5 -4 -10 -10 -10 -5 0 -10 5 -10 10 0
6 5 10 10 10 6 0 10 -4 10 -10z m560 -10 c0 -11 -22 -18 -37 -13 -20 8 -3 31
18 26 10 -3 19 -9 19 -13z m-2335 0 c3 -5 -1 -10 -10 -10 -9 0 -13 5 -10 10 3
6 8 10 10 10 2 0 7 -4 10 -10z m1868 -4 c6 -16 -26 -32 -43 -21 -15 10 -12 23
8 28 29 8 30 8 35 -7z m787 4 c0 -5 -4 -10 -10 -10 -5 0 -10 5 -10 10 0 6 5
10 10 10 6 0 10 -4 10 -10z m-915 -10 c11 -17 -5 -32 -21 -19 -7 6 -11 15 -8
20 7 12 21 11 29 -1z m309 -11 c-6 -11 -24 -2 -24 11 0 5 7 7 15 4 8 -4 12
-10 9 -15z m-2214 -4 c0 -8 -4 -15 -9 -15 -13 0 -22 16 -14 24 11 11 23 6 23
-9z m28 -47 c-10 -7 -10 -11 0 -15 6 -2 12 -9 12 -15 0 -7 -5 -6 -14 1 -10 8
-16 9 -21 1 -10 -17 -22 -11 -21 11 0 11 12 32 26 47 l25 28 3 -25 c2 -13 -2
-28 -10 -33z m1487 32 c-4 -12 3 -27 22 -45 21 -19 23 -24 8 -19 -37 14 -52
34 -47 65 2 16 8 26 14 23 5 -3 6 -14 3 -24z m125 -22 c0 -14 -20 -9 -50 14
-44 32 -37 43 10 17 22 -13 40 -26 40 -31z m230 12 c14 -9 39 -22 55 -29 28
-12 28 -14 10 -22 -36 -14 -53 -10 -59 16 -7 27 -46 48 -70 39 -8 -3 -15 3
-18 14 -5 17 -2 18 26 8 18 -6 43 -18 56 -26z m304 18 c15 -24 8 -27 -46 -21
-30 4 -48 11 -48 19 0 27 77 29 94 2z m501 2 c21 -23 12 -39 -13 -24 -19 12
-29 44 -14 44 5 0 17 -9 27 -20z m-709 -1 c10 -17 -13 -36 -27 -22 -12 12 -4
33 11 33 5 0 12 -5 16 -11z m-912 -25 c9 -22 -3 -32 -14 -14 -12 19 -12 30 -1
30 5 0 12 -7 15 -16z m1486 -9 c0 -14 -4 -25 -10 -25 -5 0 -10 11 -10 25 0 14
5 25 10 25 6 0 10 -11 10 -25z m-2440 5 c0 -5 -4 -10 -10 -10 -5 0 -10 5 -10
10 0 6 5 10 10 10 6 0 10 -4 10 -10z m1265 0 c3 -5 -1 -10 -10 -10 -9 0 -13 5
-10 10 3 6 8 10 10 10 2 0 7 -4 10 -10z m705 -37 c0 -15 7 -34 15 -43 14 -15
14 -18 0 -30 -13 -11 -19 -11 -32 3 -13 12 -14 19 -5 30 10 11 9 17 -2 27 -12
9 -13 16 -4 30 15 24 28 16 28 -17z m-2436 11 c4 -10 1 -14 -6 -12 -15 5 -23
28 -10 28 5 0 13 -7 16 -16z m536 -17 c13 -5 13 -6 -1 -6 -9 -1 -24 9 -35 22
-19 22 -19 22 1 6 11 -9 27 -19 35 -22z m1980 13 c0 -5 -7 -10 -15 -10 -8 0
-15 5 -15 10 0 6 7 10 15 10 8 0 15 -4 15 -10z m-2203 -22 c-3 -8 -6 -5 -6 6
-1 11 2 17 5 13 3 -3 4 -12 1 -19z m1717 -17 c-7 -7 -34 21 -28 31 3 5 12 1
19 -9 7 -10 12 -20 9 -22z m131 29 c3 -5 1 -10 -4 -10 -6 0 -11 5 -11 10 0 6
2 10 4 10 3 0 8 -4 11 -10z m-567 -19 c3 -8 -1 -12 -9 -9 -7 2 -15 10 -17 17
-3 8 1 12 9 9 7 -2 15 -10 17 -17z m386 -23 c6 -4 17 -6 24 -3 6 2 12 -2 12
-9 0 -9 -9 -12 -27 -8 -32 6 -53 30 -45 50 4 11 7 10 15 -4 6 -11 15 -22 21
-26z m1051 12 c27 -28 28 -30 7 -30 -11 0 -28 10 -36 22 -33 46 -13 52 29 8z
m-3029 -17 c-11 -11 -17 4 -9 23 7 18 8 18 11 1 2 -10 1 -21 -2 -24z m468 31
c18 -7 12 -24 -10 -24 -8 0 -14 7 -14 15 0 17 2 18 24 9z m1914 -11 c-2 -11
-14 -19 -31 -21 -22 -3 -27 1 -27 17 0 17 6 21 31 21 24 0 30 -4 27 -17z m577
-23 c-12 -19 -25 -10 -25 16 0 23 1 24 16 10 8 -9 12 -20 9 -26z m-1225 14 c0
-8 -4 -12 -10 -9 -5 3 -10 10 -10 16 0 5 5 9 10 9 6 0 10 -7 10 -16z m960 7
c0 -6 -9 -9 -20 -8 -11 1 -20 5 -20 9 0 4 9 8 20 8 11 0 20 -4 20 -9z m-2442
-16 c-41 -48 -43 -50 -47 -30 -3 19 23 45 46 45 11 0 11 -3 1 -15z m1052 -5
c0 -21 -15 -27 -25 -10 -7 12 2 30 16 30 5 0 9 -9 9 -20z m259 -8 c-14 -5 -39
6 -39 17 0 5 11 4 25 -2 13 -7 20 -14 14 -15z m681 19 c0 -12 -20 -25 -27 -18
-7 7 6 27 18 27 5 0 9 -4 9 -9z m-1155 -43 c11 -2 21 -10 23 -19 2 -12 -4 -15
-28 -11 -16 2 -30 10 -30 17 0 7 -3 22 -6 32 -6 17 -6 17 7 1 8 -9 23 -18 34
-20z m63 13 c3 -8 -1 -12 -9 -9 -7 2 -15 10 -17 17 -3 8 1 12 9 9 7 -2 15 -10
17 -17z m696 -6 c3 -8 1 -15 -4 -15 -6 0 -10 7 -10 15 0 8 2 15 4 15 2 0 6 -7
10 -15z m516 -11 c0 -2 -7 -4 -15 -4 -8 0 -15 4 -15 10 0 5 7 7 15 4 8 -4 15
-8 15 -10z m-2365 -5 c12 -19 -5 -23 -22 -6 -16 16 -16 17 -1 17 9 0 20 -5 23
-11z m2122 5 c-3 -3 -12 -4 -19 -1 -8 3 -5 6 6 6 11 1 17 -2 13 -5z m-84 -18
c4 -10 1 -13 -9 -9 -15 6 -19 23 -5 23 5 0 11 -7 14 -14z m932 4 c3 -5 -1 -10
-10 -10 -9 0 -13 5 -10 10 3 6 8 10 10 10 2 0 7 -4 10 -10z m-65 -20 c0 -5 -4
-10 -9 -10 -6 0 -13 5 -16 10 -3 6 1 10 9 10 9 0 16 -4 16 -10z m170 6 c0 -2
-7 -9 -15 -16 -12 -10 -15 -10 -15 4 0 9 7 16 15 16 8 0 15 -2 15 -4z"/>
<path d="M4160 1686 c0 -14 5 -28 10 -31 6 -3 10 5 10 19 0 14 -4 28 -10 31
-6 3 -10 -5 -10 -19z"/>
<path d="M7580 1686 c0 -8 7 -17 16 -20 15 -6 15 -8 -1 -26 -10 -11 -32 -21
-49 -21 -21 -1 -25 -3 -11 -6 11 -3 25 -9 32 -15 8 -6 15 -3 23 11 6 12 17 21
25 21 9 0 12 9 10 28 -2 15 -4 30 -4 35 -2 13 -41 7 -41 -7z"/>
<path d="M7470 1625 c0 -8 7 -15 15 -15 8 0 15 7 15 15 0 8 -7 15 -15 15 -8 0
-15 -7 -15 -15z"/>
<path d="M1754 1598 c-4 -6 -2 -14 4 -16 7 -2 12 -10 12 -18 0 -8 9 -14 19
-14 11 0 23 -5 26 -10 8 -13 25 -3 25 13 0 11 -58 57 -73 57 -3 0 -9 -5 -13
-12z"/>
<path d="M1856 1563 c-11 -11 43 -43 71 -42 20 1 22 3 8 6 -11 3 -24 10 -30
17 -12 15 -41 26 -49 19z"/>
<path d="M1825 1500 c3 -5 10 -10 16 -10 5 0 9 5 9 10 0 6 -7 10 -16 10 -8 0
-12 -4 -9 -10z"/>
<path d="M1998 1443 c7 -3 16 -2 19 1 4 3 -2 6 -13 5 -11 0 -14 -3 -6 -6z"/>
<path d="M1962 1419 c2 -7 10 -15 17 -17 8 -3 12 1 9 9 -2 7 -10 15 -17 17 -8
3 -12 -1 -9 -9z"/>
<path d="M4140 1389 c-14 -25 -7 -33 28 -36 46 -3 97 8 82 17 -7 4 -20 6 -27
3 -8 -3 -27 4 -43 16 l-29 21 -11 -21z"/>
<path d="M523 1363 c-15 -5 -18 -33 -4 -33 13 0 33 28 24 33 -4 2 -14 2 -20 0z"/>
<path d="M331 1324 c0 -11 3 -14 6 -6 3 7 2 16 -1 19 -3 4 -6 -2 -5 -13z"/>
<path d="M520 1306 c0 -9 7 -16 16 -16 17 0 14 22 -4 28 -7 2 -12 -3 -12 -12z"/>
<path d="M560 1290 c0 -5 5 -10 10 -10 6 0 10 5 10 10 0 6 -4 10 -10 10 -5 0
-10 -4 -10 -10z"/>
<path d="M640 1290 c0 -5 9 -14 21 -20 19 -11 20 -10 9 9 -11 22 -30 29 -30
11z"/>
<path d="M378 1259 c-34 -25 -35 -35 -5 -41 19 -4 25 1 34 29 12 38 8 40 -29
12z"/>
<path d="M500 1205 c0 -8 7 -15 15 -15 9 0 12 6 9 15 -4 8 -10 15 -15 15 -5 0
-9 -7 -9 -15z"/>
<path d="M5315 1210 c3 -5 11 -10 16 -10 6 0 7 5 4 10 -3 6 -11 10 -16 10 -6
0 -7 -4 -4 -10z"/>
<path d="M6495 1210 c27 -12 35 -12 35 0 0 6 -12 10 -27 9 -25 0 -26 -1 -8 -9z"/>
<path d="M360 1190 c-13 -8 -13 -10 2 -10 9 0 20 5 23 10 8 13 -5 13 -25 0z"/>
<path d="M3855 1160 c-4 -12 -5 -24 -2 -27 3 -2 8 5 12 17 4 12 5 24 2 27 -3
2 -8 -5 -12 -17z"/>
<path d="M326 1154 c-4 -9 -4 -19 -1 -22 2 -3 7 3 11 12 4 9 4 19 1 22 -2 3
-7 -3 -11 -12z"/>
<path d="M6340 1117 c0 -8 7 -18 16 -21 11 -4 14 -1 12 11 -4 21 -28 30 -28
10z"/>
<path d="M3847 1063 c-4 -3 -6 -29 -6 -57 l1 -51 8 55 c9 57 8 65 -3 53z"/>
<path d="M2015 873 c-10 -43 -28 -97 -41 -120 -13 -23 -24 -48 -24 -55 0 -8
-9 -31 -20 -53 -11 -22 -20 -46 -20 -55 0 -28 -29 -95 -40 -92 -16 3 -26 -37
-23 -93 1 -37 -3 -57 -18 -78 -23 -32 -13 -41 42 -35 30 3 33 6 50 68 10 36
18 84 19 107 0 82 74 323 99 323 4 0 9 26 10 58 0 31 2 66 4 76 1 10 -3 21
-10 23 -7 3 -18 -24 -28 -74z"/>
<path d="M4873 903 c-24 -9 -13 -23 18 -23 20 0 29 4 27 13 -5 13 -26 18 -45
10z"/>
<path d="M4558 873 c7 -3 16 -2 19 1 4 3 -2 6 -13 5 -11 0 -14 -3 -6 -6z"/>
<path d="M4771 864 c0 -11 3 -14 6 -6 3 7 2 16 -1 19 -3 4 -6 -2 -5 -13z"/>
<path d="M4820 865 c-10 -12 -10 -15 4 -15 9 0 16 7 16 15 0 8 -2 15 -4 15 -2
0 -9 -7 -16 -15z"/>
<path d="M3806 663 c-3 -65 -9 -140 -11 -168 -4 -41 -3 -47 6 -31 11 19 27
316 17 316 -3 0 -8 -53 -12 -117z"/>
<path d="M1100 670 c0 -18 4 -29 10 -25 6 3 10 15 10 25 0 10 -4 22 -10 25 -6
4 -10 -7 -10 -25z"/>
<path d="M4135 510 c-3 -6 1 -13 9 -16 9 -3 16 -11 16 -16 0 -6 14 -26 31 -46
20 -22 29 -28 25 -16 -3 10 -2 24 2 30 9 15 73 35 100 32 11 -2 22 1 24 6 2 5
-21 10 -49 10 -29 1 -53 -2 -53 -6 0 -17 -50 -7 -60 12 -11 21 -35 27 -45 10z"/>
<path d="M1110 455 c0 -5 56 -35 66 -35 4 0 -3 9 -16 20 -21 18 -50 27 -50 15z"/>
<path d="M3980 430 c0 -5 5 -10 10 -10 6 0 8 -11 4 -25 -3 -14 -2 -25 3 -25
14 0 50 29 36 30 -7 0 -13 9 -13 20 0 13 -7 20 -20 20 -11 0 -20 -4 -20 -10z"/>
<path d="M4110 431 c-24 -7 -24 -7 -5 -15 37 -15 85 -24 85 -16 0 13 -30 40
-43 39 -7 -1 -23 -4 -37 -8z"/>
<path d="M4246 413 c10 -42 23 -51 40 -29 12 17 14 18 14 3 0 -9 5 -17 10 -17
14 0 12 20 -4 49 -8 15 -16 20 -20 12 -5 -8 -13 -8 -27 -1 -18 10 -19 9 -13
-17z"/>
<path d="M3784 409 c-3 -6 -1 -16 5 -22 8 -8 11 -5 11 11 0 24 -5 28 -16 11z"/>
<path d="M4207 376 c-5 -12 -21 -14 -83 -11 l-77 5 23 -25 c29 -31 44 -32 35
-4 -4 12 -3 20 1 18 5 -2 34 -16 64 -30 58 -28 166 -44 191 -28 14 9 12 9 -41
13 -8 1 -15 8 -15 16 0 8 -4 21 -9 29 -8 12 -11 11 -22 -4 -10 -14 -11 -22 -3
-32 16 -19 -28 -18 -47 1 -12 13 -11 15 7 18 21 3 21 3 1 26 -16 18 -21 20
-25 8z"/>
<path d="M3780 333 c0 -23 5 -33 15 -33 18 0 18 8 0 40 l-14 25 -1 -32z"/>
<path d="M5637 323 c-12 -11 -8 -23 8 -23 8 0 15 7 15 15 0 16 -12 20 -23 8z"/>
<path d="M4132 304 c9 -9 21 -13 28 -9 14 9 -5 25 -30 25 -12 0 -12 -3 2 -16z"/>
</g>
</svg>
